<?xml version="1.0" encoding="UTF-8" standalone="no"?>
<svg
   xmlns:dc="http://purl.org/dc/elements/1.1/"
   xmlns:cc="http://creativecommons.org/ns#"
   xmlns:rdf="http://www.w3.org/1999/02/22-rdf-syntax-ns#"
   xmlns:svg="http://www.w3.org/2000/svg"
   xmlns="http://www.w3.org/2000/svg"
   viewBox="0 0 4800 4800"
   height="1100"
   width="1100"
   xml:space="preserve"
   id="svg2"
   version="1.1"><metadata
     id="metadata8"><rdf:RDF><cc:Work
         rdf:about=""><dc:format>image/svg+xml</dc:format><dc:type
           rdf:resource="http://purl.org/dc/dcmitype/StillImage" /></cc:Work></rdf:RDF></metadata><defs
     id="defs6"><linearGradient
       id="linearGradient30"
       spreadMethod="pad"
       gradientTransform="matrix(1564.3573,115.56184,115.56184,-1564.3573,1151.3516,1750.439)"
       gradientUnits="userSpaceOnUse"
       y2="0"
       x2="1"
       y1="0"
       x1="0"><stop
         id="stop24"
         offset="0"
         style="stop-opacity:1;stop-color:#f3dc89" /><stop
         id="stop26"
         offset="0.578212"
         style="stop-opacity:1;stop-color:#c7ab66" /><stop
         id="stop28"
         offset="1"
         style="stop-opacity:1;stop-color:#bfa260" /></linearGradient><clipPath
       id="clipPath40"
       clipPathUnits="userSpaceOnUse"><path
         id="path38"
         d="M 0,3600 H 3600 V 0 H 0 Z" /></clipPath></defs><g
     transform="matrix(1.3333333,0,0,-1.3333333,0,4800)"
     id="g10"><g
       id="g12"><g
         id="g14"><g
           id="g20"><g
             id="g22"><path
               id="path32"
               style="fill:url(#linearGradient30);stroke:none"
               d="m 1547.128,2144.577 -58.695,-9.425 -29.99,-63.836 -263.056,-65.978 -48.84,-110.106 30.846,-49.27 -127.551,-315.559 27.02,-21.076 -209.886,-288.767 674.488,0.673 257.326,-108.08 274.017,110.142 661.337,-4.259 -196.105,268.506 27.328,19.106 c -47.827,102.842 -90.937,226.486 -137.64,270.403 v 0 l 11.031,15.755 c -89.392,210.826 -94.603,223.617 -294.68,267.354 v 0 l -35.514,72.657 -51.804,8.146 -256.953,342.492 z" /></g></g></g></g><g
       id="g34"><g
         clip-path="url(#clipPath40)"
         id="g36"><g
           transform="translate(1437.1799,1977.0901)"
           id="g42"><path
             id="path44"
             style="fill:#091c33;fill-opacity:1;fill-rule:nonzero;stroke:none"
             d="m 0,0 -22.79,56.36 -199.87,-46.37 -37.17,-85.14 33.18,-46.77 -126.89,-312.37 55.13,-39.63 -169.93,-229.68 586.41,-2.26 244.75,-96.48 242.91,98.34 h 585.37 l -152.72,207.21 55.51,42.54 -74.38,168.75 c -14.54,28.41 -38.37,56.22 -69.29,83.56 l 19.36,30.06 -49.93,113.62 C 891.38,-10.21 856.77,19.41 815.62,30.1 L 696.53,57.99 674.88,-3.58 606.666,8.189 594.126,-33.349 567.449,14.532 C 382.859,37.114 193.634,31.82 0,0" /></g><g
           transform="translate(2382.032,1410.6219)"
           id="g46"><path
             id="path48"
             style="fill:#ffffff;fill-opacity:1;fill-rule:nonzero;stroke:none"
             d="m 0,0 -395.127,58.427 32.679,-21.786 c -145.166,7.082 -292.97,6.16 -443.156,-1.981 l 38.126,23.767 -403.049,-60.903 287.185,14.36 -43.078,-25.748 c 228.378,21.297 458.12,21.396 689.245,0 l -46.049,27.233 z" /></g><g
           transform="translate(1981.3101,2150.9102)"
           id="g50"><path
             id="path52"
             style="fill:#091c33;fill-opacity:1;fill-rule:nonzero;stroke:none"
             d="m 0,0 c -120.14,9.66 -241.23,9.74 -363.31,0 l 182,246 z" /></g><g
           transform="translate(1409.1647,2020.3042)"
           id="g54"><path
             id="path56"
             style="fill:#ffffff;fill-opacity:1;fill-rule:nonzero;stroke:none"
             d="m 0,0 -187.577,-46.448 -30.37,-70.266 56.869,14.589 -151.51,-371.921 104.474,26.666 127.274,366.842 58.637,11.197 z" /></g><g
           transform="translate(1482.2568,1967.4363)"
           id="g58"><path
             id="path60"
             style="fill:#ffffff;fill-opacity:1;fill-rule:nonzero;stroke:none"
             d="m 0,0 -73.092,-9.376 -104.308,-361.807 96.248,15.688 z" /></g><g
           transform="translate(1704.2633,1990.1477)"
           id="g62"><path
             id="path64"
             style="fill:#ffffff;fill-opacity:1;fill-rule:nonzero;stroke:none"
             d="m 0,0 -197.159,-17.384 -13.144,-68.264 61.48,6.36 -46.216,-284.503 99.215,8.48 30.528,286.623 62.752,1.696 z" /></g><g
           transform="translate(1783.76,1788.42)"
           id="g66"><path
             id="path68"
             style="fill:#ffffff;fill-opacity:1;fill-rule:nonzero;stroke:none"
             d="M 0,0 14.8,138.45 34.12,2.3 Z M 79.93,201.73 H -48.59 l -63.07,-350.11 h 97.56 l 8.38,78.63 49.51,-1.46 10.55,-79.72 100.11,-2.18 z" /></g><g
           transform="translate(2132.0752,1956.6953)"
           id="g70"><path
             id="path72"
             style="fill:#ffffff;fill-opacity:1;fill-rule:nonzero;stroke:none"
             d="m 0,0 -78.159,14.292 32.157,-147.832 -91.111,155.871 -72.8,6.253 44.835,-354.951 95.004,-7.308 -24.012,156.601 101.269,-165.475 95.004,-17.748 z" /></g><g
           transform="translate(2293.6462,1875.8102)"
           id="g74"><path
             id="path76"
             style="fill:#ffffff;fill-opacity:1;fill-rule:nonzero;stroke:none"
             d="M 0,0 100.042,-72.851 53.356,33.86 C 34.597,71.456 6.348,98.977 -32.321,115.433 l -120.05,28.217 42.069,-136.468 c 10.935,-40.968 33.257,-72.464 69.772,-92.153 l 84.138,-63.809 23.087,-30.269 26.678,-66.695 -33.861,8.209 c -7.74,4.421 -13.096,11.209 -15.391,21.034 l -8.721,27.704 -107.738,73.364 35.4,-113.381 c 13.02,-27.503 33.824,-48.294 61.564,-63.103 l 199.571,-61.051 -72.338,164.684 c -16.351,27.3 -35.729,51.534 -58.999,71.825 l -94.062,72.441 c -12.515,8.1 -22.089,20.032 -28.309,36.338 l -21.972,62.957 24.93,-7.183 c 6.424,-3.648 10.779,-8.868 13.098,-15.634 z" /></g><g
           transform="translate(1265.8501,1510.6902)"
           id="g78"><path
             id="path80"
             style="fill:#ddc378;fill-opacity:1;fill-rule:nonzero;stroke:none"
             d="M 0,0 -58.83,50.273 -150.017,26.474 -81.56,-22.195 Z" /></g><g
           transform="translate(1446.9929,1542.5684)"
           id="g82"><path
             id="path84"
             style="fill:#ddc378;fill-opacity:1;fill-rule:nonzero;stroke:none"
             d="m 0,0 -43.45,58.634 -89.47,-16.819 49.524,-57.466 z" /></g><g
           transform="translate(1630.6049,1559.6215)"
           id="g86"><path
             id="path88"
             style="fill:#ddc378;fill-opacity:1;fill-rule:nonzero;stroke:none"
             d="m 0,0 -20.557,63.54 -96.011,-9.111 32.237,-60.97 z" /></g><g
           transform="translate(1773.8035,1565.6951)"
           id="g90"><path
             id="path92"
             style="fill:#ddc378;fill-opacity:1;fill-rule:nonzero;stroke:none"
             d="M 0,0 -5.84,63.774 -100.216,60.662 -84.331,0 Z" /></g><g
           transform="translate(1935.4567,1622.2271)"
           id="g94"><path
             id="path96"
             style="fill:#ddc378;fill-opacity:1;fill-rule:nonzero;stroke:none"
             d="m 0,0 -95.31,6.074 -3.037,-62.606 85.053,-3.738 z" /></g><g
           transform="translate(2057.6311,1610.0797)"
           id="g98"><path
             id="path100"
             style="fill:#ddc378;fill-opacity:1;fill-rule:nonzero;stroke:none"
             d="m 0,0 -89.47,9.11 -18.688,-60.97 81.994,-7.709 z" /></g><g
           transform="translate(2226.5259,1584.8506)"
           id="g102"><path
             id="path104"
             style="fill:#ddc378;fill-opacity:1;fill-rule:nonzero;stroke:none"
             d="m 0,0 -90.171,15.184 -32.704,-56.999 75.454,-13.783 z" /></g><g
           transform="translate(2498.3479,1514.3578)"
           id="g106"><path
             id="path108"
             style="fill:#d9be74;fill-opacity:1;fill-rule:nonzero;stroke:none"
             d="m 0,0 c 0,0 -86.388,27.227 -122.354,35.967 -35.968,8.74 -88.741,34.622 -93.447,39.664 -9.748,-11.428 -53.11,-62.522 -53.11,-62.522 0,0 36.303,-20.168 107.564,-33.613 71.262,-13.446 100.842,-19.833 100.842,-19.833 z" /></g><g
           transform="translate(1140.33,1502.05)"
           id="g110"><path
             id="path112"
             style="fill:none;stroke:#091c33;stroke-width:1;stroke-linecap:butt;stroke-linejoin:miter;stroke-miterlimit:10;stroke-dasharray:none;stroke-opacity:1"
             d="M 0,0 -1.56,1.12" /></g><g
           transform="translate(2089.2161,2014.7278)"
           id="g114"><path
             id="path116"
             style="fill:#091c33;fill-opacity:1;fill-rule:nonzero;stroke:none"
             d="m 0,0 -27.821,66.624 23.858,-1.056 -6.665,19.995 -70.071,7.385 6.89,-20.179 23.834,-0.779 25.477,-72.711 z" /></g><g
           transform="translate(1973.3101,2058.55)"
           id="g118"><path
             id="path120"
             style="fill:#091c33;fill-opacity:1;fill-rule:nonzero;stroke:none"
             d="M 0,0 V 33.96 L 16.29,0 Z m 10.11,54.17 h -30.6 l -4.49,-85.61 24.7,-1.13 0.85,13.76 28.07,-1.12 8.7,-17.69 h 24.7 z" /></g><g
           transform="translate(1780.26,2067.24)"
           id="g122"><path
             id="path124"
             style="fill:#091c33;fill-opacity:1;fill-rule:nonzero;stroke:none"
             d="M 0,0 8.59,33.13 17.66,0 Z M 24.89,54.18 H -5.12 L -36,-35.36 c 0,0 25.82,-1.97 26.1,0 0.28,1.96 4.21,16.28 4.21,16.28 l 28.92,0.56 5.05,-17.71 h 26.11 z" /></g><g
           transform="translate(1891.98,2081.24)"
           id="g126"><path
             id="path128"
             style="fill:#091c33;fill-opacity:1;fill-rule:nonzero;stroke:none"
             d="m 0,0 h -20.9 v 17.68 h 18.37 c 0,0 6.27,0.92 6.27,-8.84 C 3.74,-0.91 0,0 0,0 m 19.28,-18.82 c 6.74,2.29 8.81,6.79 8.26,15.53 l -2.8,23.14 C 20.35,32.56 11.53,37.68 -1.61,39.27 h -45 l 6.66,-89.5 h 26.17 l -4.13,30.72 h 13.32 l 18.36,-32.14 h 27.78 z" /></g><g
           transform="translate(1737.4025,2119.2092)"
           id="g130"><path
             id="path132"
             style="fill:#091c33;fill-opacity:1;fill-rule:nonzero;stroke:none"
             d="m 0,0 -6.36,-66.358 c -0.562,-10.558 -4.697,-18.489 -15.052,-21.847 l -39.433,-1.261 v 18.868 l 24.38,0.424 c 5.368,0.261 8.055,4.851 8.056,13.781 L -22.896,0 Z" /></g><g
           transform="translate(1676.5571,2116.6729)"
           id="g134"><path
             id="path136"
             style="fill:#091c33;fill-opacity:1;fill-rule:nonzero;stroke:none"
             d="m 0,0 -14.345,-68.313 c -1.32,-12.786 -8.815,-18.859 -19.213,-21.775 l -45.471,-4.056 c -10.126,1.714 -13.843,8.561 -11.741,20.067 l 18.999,70.021 h 22.202 l -14.516,-57.426 c -1.687,-7.634 -1.587,-11.981 2.988,-12.168 l 14.734,0.064 c 6.67,0.983 10.07,4.193 10.884,11.891 L -23.311,0 Z" /></g><g
           transform="translate(1579.4882,2106.8723)"
           id="g138"><path
             id="path140"
             style="fill:#091c33;fill-opacity:1;fill-rule:nonzero;stroke:none"
             d="m 0,0 c 0,0 1.69,-20.705 -18.592,-21.972 -20.282,-1.268 -26.409,0.211 -31.69,-12.676 -5.282,-12.888 -12.677,-31.057 -12.677,-31.057 0,0 -4.225,-8.874 6.127,-8.24 10.352,0.634 15,1.69 18.381,10.352 3.38,8.663 8.239,23.874 8.239,23.874 l 21.55,0.845 -9.93,-36.761 c -1.391,-7.666 -7.173,-12.085 -15.845,-14.366 l -48.17,-5.071 c -12.885,-0.536 -12.344,9.033 -8.451,20.916 l 23.029,50.705 c 5.987,13.071 17.34,19.519 32.958,20.705 z" /></g></g></g></g></svg>