<?xml version="1.0" encoding="UTF-8" standalone="no"?>
<svg
   xmlns:dc="http://purl.org/dc/elements/1.1/"
   xmlns:cc="http://creativecommons.org/ns#"
   xmlns:rdf="http://www.w3.org/1999/02/22-rdf-syntax-ns#"
   xmlns:svg="http://www.w3.org/2000/svg"
   xmlns="http://www.w3.org/2000/svg"
   viewBox="0 0 3840 3840"
   height="840"
   width="700"
   xml:space="preserve"
   id="svg2"
   version="1.1"><metadata
     id="metadata8"><rdf:RDF><cc:Work
         rdf:about=""><dc:format>image/svg+xml</dc:format><dc:type
           rdf:resource="http://purl.org/dc/dcmitype/StillImage" /></cc:Work></rdf:RDF></metadata><defs
     id="defs6"><linearGradient
       id="linearGradient30"
       spreadMethod="pad"
       gradientTransform="matrix(1127.2388,0,0,-1127.2388,196.31465,1814.3918)"
       gradientUnits="userSpaceOnUse"
       y2="0"
       x2="1"
       y1="0"
       x1="0"><stop
         id="stop24"
         offset="0"
         style="stop-opacity:1;stop-color:#ef9001" /><stop
         id="stop26"
         offset="0.592179"
         style="stop-opacity:1;stop-color:#ef9001" /><stop
         id="stop28"
         offset="1"
         style="stop-opacity:1;stop-color:#972452" /></linearGradient><linearGradient
       id="linearGradient52"
       spreadMethod="pad"
       gradientTransform="matrix(995.29712,0,0,-995.29712,232.42358,1827.3062)"
       gradientUnits="userSpaceOnUse"
       y2="0"
       x2="1"
       y1="0"
       x1="0"><stop
         id="stop46"
         offset="0"
         style="stop-opacity:1;stop-color:#ef9001" /><stop
         id="stop48"
         offset="0.597765"
         style="stop-opacity:1;stop-color:#ef9001" /><stop
         id="stop50"
         offset="1"
         style="stop-opacity:1;stop-color:#972452" /></linearGradient><linearGradient
       id="linearGradient74"
       spreadMethod="pad"
       gradientTransform="matrix(891.92249,0,0,-891.92249,345.86505,1672.5385)"
       gradientUnits="userSpaceOnUse"
       y2="0"
       x2="1"
       y1="0"
       x1="0"><stop
         id="stop68"
         offset="0"
         style="stop-opacity:1;stop-color:#ffffff" /><stop
         id="stop70"
         offset="0.0614525"
         style="stop-opacity:1;stop-color:#ffffff" /><stop
         id="stop72"
         offset="1"
         style="stop-opacity:1;stop-color:#8f8f8f" /></linearGradient><linearGradient
       id="linearGradient96"
       spreadMethod="pad"
       gradientTransform="matrix(785.59601,0,0,-785.59601,459.90228,1554.6008)"
       gradientUnits="userSpaceOnUse"
       y2="0"
       x2="1"
       y1="0"
       x1="0"><stop
         id="stop90"
         offset="0"
         style="stop-opacity:1;stop-color:#38a739" /><stop
         id="stop92"
         offset="0.0614525"
         style="stop-opacity:1;stop-color:#38a739" /><stop
         id="stop94"
         offset="1"
         style="stop-opacity:1;stop-color:#256343" /></linearGradient><linearGradient
       id="linearGradient118"
       spreadMethod="pad"
       gradientTransform="matrix(660.68213,0,0,-660.68213,658.99597,1436.2806)"
       gradientUnits="userSpaceOnUse"
       y2="0"
       x2="1"
       y1="0"
       x1="0"><stop
         id="stop112"
         offset="0"
         style="stop-opacity:1;stop-color:#38a739" /><stop
         id="stop114"
         offset="0.0614525"
         style="stop-opacity:1;stop-color:#38a739" /><stop
         id="stop116"
         offset="1"
         style="stop-opacity:1;stop-color:#256343" /></linearGradient><linearGradient
       id="linearGradient140"
       spreadMethod="pad"
       gradientTransform="matrix(-1127.2388,1e-7,-1e-7,-1127.2388,2672.0322,1814.3918)"
       gradientUnits="userSpaceOnUse"
       y2="0"
       x2="1"
       y1="0"
       x1="0"><stop
         id="stop134"
         offset="0"
         style="stop-opacity:1;stop-color:#ef9001" /><stop
         id="stop136"
         offset="0.592179"
         style="stop-opacity:1;stop-color:#ef9001" /><stop
         id="stop138"
         offset="1"
         style="stop-opacity:1;stop-color:#972452" /></linearGradient><linearGradient
       id="linearGradient162"
       spreadMethod="pad"
       gradientTransform="matrix(-995.29712,0,0,-995.29712,2635.9233,1827.3062)"
       gradientUnits="userSpaceOnUse"
       y2="0"
       x2="1"
       y1="0"
       x1="0"><stop
         id="stop156"
         offset="0"
         style="stop-opacity:1;stop-color:#ef9001" /><stop
         id="stop158"
         offset="0.597765"
         style="stop-opacity:1;stop-color:#ef9001" /><stop
         id="stop160"
         offset="1"
         style="stop-opacity:1;stop-color:#972452" /></linearGradient><linearGradient
       id="linearGradient184"
       spreadMethod="pad"
       gradientTransform="matrix(-891.92249,0,0,-891.92249,2522.4819,1672.5385)"
       gradientUnits="userSpaceOnUse"
       y2="0"
       x2="1"
       y1="0"
       x1="0"><stop
         id="stop178"
         offset="0"
         style="stop-opacity:1;stop-color:#ffffff" /><stop
         id="stop180"
         offset="0.0614525"
         style="stop-opacity:1;stop-color:#ffffff" /><stop
         id="stop182"
         offset="1"
         style="stop-opacity:1;stop-color:#8f8f8f" /></linearGradient><linearGradient
       id="linearGradient206"
       spreadMethod="pad"
       gradientTransform="matrix(-785.59601,0,0,-785.59601,2408.4446,1554.6008)"
       gradientUnits="userSpaceOnUse"
       y2="0"
       x2="1"
       y1="0"
       x1="0"><stop
         id="stop200"
         offset="0"
         style="stop-opacity:1;stop-color:#38a739" /><stop
         id="stop202"
         offset="0.0614525"
         style="stop-opacity:1;stop-color:#38a739" /><stop
         id="stop204"
         offset="1"
         style="stop-opacity:1;stop-color:#256343" /></linearGradient><linearGradient
       id="linearGradient228"
       spreadMethod="pad"
       gradientTransform="matrix(-660.68213,0,0,-660.68213,2209.3511,1436.2806)"
       gradientUnits="userSpaceOnUse"
       y2="0"
       x2="1"
       y1="0"
       x1="0"><stop
         id="stop222"
         offset="0"
         style="stop-opacity:1;stop-color:#38a739" /><stop
         id="stop224"
         offset="0.0614525"
         style="stop-opacity:1;stop-color:#38a739" /><stop
         id="stop226"
         offset="1"
         style="stop-opacity:1;stop-color:#256343" /></linearGradient><clipPath
       id="clipPath238"
       clipPathUnits="userSpaceOnUse"><path
         id="path236"
         d="M 0,2880 H 2880 V 0 H 0 Z" /></clipPath><linearGradient
       id="linearGradient304"
       spreadMethod="pad"
       gradientTransform="matrix(0,173.36964,173.36964,0,927.93427,975.88031)"
       gradientUnits="userSpaceOnUse"
       y2="0"
       x2="1"
       y1="0"
       x1="0"><stop
         id="stop300"
         offset="0"
         style="stop-opacity:1;stop-color:#2f3580" /><stop
         id="stop302"
         offset="1"
         style="stop-opacity:1;stop-color:#0658e2" /></linearGradient><linearGradient
       id="linearGradient324"
       spreadMethod="pad"
       gradientTransform="matrix(0,186.27002,186.27002,0,941.91998,1186.8)"
       gradientUnits="userSpaceOnUse"
       y2="0"
       x2="1"
       y1="0"
       x1="0"><stop
         id="stop320"
         offset="0"
         style="stop-opacity:1;stop-color:#2f3580" /><stop
         id="stop322"
         offset="1"
         style="stop-opacity:1;stop-color:#0658e2" /></linearGradient><linearGradient
       id="linearGradient344"
       spreadMethod="pad"
       gradientTransform="matrix(0,182.40991,182.40991,0,1381.145,1186.8)"
       gradientUnits="userSpaceOnUse"
       y2="0"
       x2="1"
       y1="0"
       x1="0"><stop
         id="stop340"
         offset="0"
         style="stop-opacity:1;stop-color:#2f3580" /><stop
         id="stop342"
         offset="1"
         style="stop-opacity:1;stop-color:#0658e2" /></linearGradient><linearGradient
       id="linearGradient364"
       spreadMethod="pad"
       gradientTransform="matrix(0,186.27002,186.27002,0,1091.3171,1186.8)"
       gradientUnits="userSpaceOnUse"
       y2="0"
       x2="1"
       y1="0"
       x1="0"><stop
         id="stop360"
         offset="0"
         style="stop-opacity:1;stop-color:#2f3580" /><stop
         id="stop362"
         offset="1"
         style="stop-opacity:1;stop-color:#0658e2" /></linearGradient><linearGradient
       id="linearGradient384"
       spreadMethod="pad"
       gradientTransform="matrix(0,188.99403,188.99403,0,1234.076,1186.7677)"
       gradientUnits="userSpaceOnUse"
       y2="0"
       x2="1"
       y1="0"
       x1="0"><stop
         id="stop380"
         offset="0"
         style="stop-opacity:1;stop-color:#2f3580" /><stop
         id="stop382"
         offset="1"
         style="stop-opacity:1;stop-color:#0658e2" /></linearGradient><linearGradient
       id="linearGradient404"
       spreadMethod="pad"
       gradientTransform="matrix(0,185.88989,185.88989,0,1541.6101,1186.8)"
       gradientUnits="userSpaceOnUse"
       y2="0"
       x2="1"
       y1="0"
       x1="0"><stop
         id="stop400"
         offset="0"
         style="stop-opacity:1;stop-color:#2f3580" /><stop
         id="stop402"
         offset="1"
         style="stop-opacity:1;stop-color:#0658e2" /></linearGradient><linearGradient
       id="linearGradient424"
       spreadMethod="pad"
       gradientTransform="matrix(0,184.55333,184.55333,0,1869.0499,1188.2567)"
       gradientUnits="userSpaceOnUse"
       y2="0"
       x2="1"
       y1="0"
       x1="0"><stop
         id="stop420"
         offset="0"
         style="stop-opacity:1;stop-color:#2f3580" /><stop
         id="stop422"
         offset="1"
         style="stop-opacity:1;stop-color:#0658e2" /></linearGradient><linearGradient
       id="linearGradient444"
       spreadMethod="pad"
       gradientTransform="matrix(0,191.74817,191.74817,0,1699.6908,1183.8041)"
       gradientUnits="userSpaceOnUse"
       y2="0"
       x2="1"
       y1="0"
       x1="0"><stop
         id="stop440"
         offset="0"
         style="stop-opacity:1;stop-color:#2f3580" /><stop
         id="stop442"
         offset="1"
         style="stop-opacity:1;stop-color:#0658e2" /></linearGradient><linearGradient
       id="linearGradient464"
       spreadMethod="pad"
       gradientTransform="matrix(0,179.0439,179.0439,0,792.99542,974.72461)"
       gradientUnits="userSpaceOnUse"
       y2="0"
       x2="1"
       y1="0"
       x1="0"><stop
         id="stop460"
         offset="0"
         style="stop-opacity:1;stop-color:#2f3580" /><stop
         id="stop462"
         offset="1"
         style="stop-opacity:1;stop-color:#0658e2" /></linearGradient><linearGradient
       id="linearGradient484"
       spreadMethod="pad"
       gradientTransform="matrix(0,177.97998,177.97998,0,1059.5615,976.18994)"
       gradientUnits="userSpaceOnUse"
       y2="0"
       x2="1"
       y1="0"
       x1="0"><stop
         id="stop480"
         offset="0"
         style="stop-opacity:1;stop-color:#2f3580" /><stop
         id="stop482"
         offset="1"
         style="stop-opacity:1;stop-color:#0658e2" /></linearGradient><linearGradient
       id="linearGradient504"
       spreadMethod="pad"
       gradientTransform="matrix(0,176.48999,176.48999,0,1310.05,975.92993)"
       gradientUnits="userSpaceOnUse"
       y2="0"
       x2="1"
       y1="0"
       x1="0"><stop
         id="stop500"
         offset="0"
         style="stop-opacity:1;stop-color:#2f3580" /><stop
         id="stop502"
         offset="1"
         style="stop-opacity:1;stop-color:#0658e2" /></linearGradient><linearGradient
       id="linearGradient524"
       spreadMethod="pad"
       gradientTransform="matrix(0,175.56786,175.56786,0,1183.2748,976.95862)"
       gradientUnits="userSpaceOnUse"
       y2="0"
       x2="1"
       y1="0"
       x1="0"><stop
         id="stop520"
         offset="0"
         style="stop-opacity:1;stop-color:#2f3580" /><stop
         id="stop522"
         offset="1"
         style="stop-opacity:1;stop-color:#0658e2" /></linearGradient><linearGradient
       id="linearGradient544"
       spreadMethod="pad"
       gradientTransform="matrix(0,173.39539,173.39539,0,1599.6981,977.47058)"
       gradientUnits="userSpaceOnUse"
       y2="0"
       x2="1"
       y1="0"
       x1="0"><stop
         id="stop540"
         offset="0"
         style="stop-opacity:1;stop-color:#2f3580" /><stop
         id="stop542"
         offset="1"
         style="stop-opacity:1;stop-color:#0658e2" /></linearGradient><linearGradient
       id="linearGradient564"
       spreadMethod="pad"
       gradientTransform="matrix(0,177.5,177.5,0,1715.33,975.1499)"
       gradientUnits="userSpaceOnUse"
       y2="0"
       x2="1"
       y1="0"
       x1="0"><stop
         id="stop560"
         offset="0"
         style="stop-opacity:1;stop-color:#2f3580" /><stop
         id="stop562"
         offset="1"
         style="stop-opacity:1;stop-color:#0658e2" /></linearGradient><linearGradient
       id="linearGradient584"
       spreadMethod="pad"
       gradientTransform="matrix(0,177.65338,177.65338,0,1484.8369,972.4953)"
       gradientUnits="userSpaceOnUse"
       y2="0"
       x2="1"
       y1="0"
       x1="0"><stop
         id="stop580"
         offset="0"
         style="stop-opacity:1;stop-color:#2f3580" /><stop
         id="stop582"
         offset="1"
         style="stop-opacity:1;stop-color:#0658e2" /></linearGradient><linearGradient
       id="linearGradient604"
       spreadMethod="pad"
       gradientTransform="matrix(0,175.98969,175.98969,0,1848.217,976.91455)"
       gradientUnits="userSpaceOnUse"
       y2="0"
       x2="1"
       y1="0"
       x1="0"><stop
         id="stop600"
         offset="0"
         style="stop-opacity:1;stop-color:#2f3580" /><stop
         id="stop602"
         offset="1"
         style="stop-opacity:1;stop-color:#0658e2" /></linearGradient><linearGradient
       id="linearGradient624"
       spreadMethod="pad"
       gradientTransform="matrix(0,177.45126,177.45126,0,1965.2968,975.95209)"
       gradientUnits="userSpaceOnUse"
       y2="0"
       x2="1"
       y1="0"
       x1="0"><stop
         id="stop620"
         offset="0"
         style="stop-opacity:1;stop-color:#2f3580" /><stop
         id="stop622"
         offset="1"
         style="stop-opacity:1;stop-color:#0658e2" /></linearGradient><linearGradient
       id="linearGradient644"
       spreadMethod="pad"
       gradientTransform="matrix(0,182.38354,182.38354,0,2088.4978,973.21515)"
       gradientUnits="userSpaceOnUse"
       y2="0"
       x2="1"
       y1="0"
       x1="0"><stop
         id="stop640"
         offset="0"
         style="stop-opacity:1;stop-color:#2f3580" /><stop
         id="stop642"
         offset="1"
         style="stop-opacity:1;stop-color:#0658e2" /></linearGradient><clipPath
       id="clipPath654"
       clipPathUnits="userSpaceOnUse"><path
         id="path652"
         d="M 0,2880 H 2880 V 0 H 0 Z" /></clipPath><clipPath
       id="clipPath694"
       clipPathUnits="userSpaceOnUse"><path
         id="path692"
         d="M 886.6,1330.08 H 1984.13 V 1183.8 H 886.6 Z" /></clipPath><clipPath
       id="clipPath698"
       clipPathUnits="userSpaceOnUse"><path
         id="path696"
         d="M 886.6,1257.65 H 997.24 V 1186.8 H 886.6 Z" /></clipPath><clipPath
       id="clipPath702"
       clipPathUnits="userSpaceOnUse"><path
         id="path700"
         d="m 1014.43,1307.38 h 140.96 V 1186.8 h -140.96 z" /></clipPath><clipPath
       id="clipPath706"
       clipPathUnits="userSpaceOnUse"><path
         id="path704"
         d="m 1170.56,1319.03 h 110.92 v -132.26 h -110.92 z" /></clipPath><clipPath
       id="clipPath710"
       clipPathUnits="userSpaceOnUse"><path
         id="path708"
         d="m 1306.6,1330.08 h 149.09 V 1186.8 H 1306.6 Z" /></clipPath><clipPath
       id="clipPath714"
       clipPathUnits="userSpaceOnUse"><path
         id="path712"
         d="m 1469.48,1329.75 h 144.66 V 1186.8 h -144.66 z" /></clipPath><clipPath
       id="clipPath718"
       clipPathUnits="userSpaceOnUse"><path
         id="path716"
         d="M 1626.38,1319.37 H 1773 V 1183.8 h -146.62 z" /></clipPath><clipPath
       id="clipPath722"
       clipPathUnits="userSpaceOnUse"><path
         id="path720"
         d="m 1785.94,1293 h 95.9 v -104.74 h -95.9 z" /></clipPath><clipPath
       id="clipPath726"
       clipPathUnits="userSpaceOnUse"><path
         id="path724"
         d="m 1896.11,1262.65 h 88.02 v -73.78 h -88.02 z" /></clipPath></defs><g
     transform="matrix(1.3333333,0,0,-1.3333333,0,3840)"
     id="g10"><g
       id="g12"><g
         id="g14"><g
           id="g20"><g
             id="g22"><path
               id="path32"
               style="fill:url(#linearGradient30);stroke:none"
               d="m 1046.514,1814.923 c 36.513,-85.414 110.91,-127.445 216.519,-133.733 v 0 l 21.227,-187.863 h 35.026 l 4.267,272.694 c -87.651,-12.558 -187.182,0.5 -172.119,130.63 v 0 l -955.078,238.805 c -4.948,-71.146 440.728,-198.084 850.158,-320.533" /></g></g></g></g><g
       id="g34"><g
         id="g36"><g
           id="g42"><g
             id="g44"><path
               id="path54"
               style="fill:url(#linearGradient52);stroke:none"
               d="m 484.126,1827.702 743.595,-216.961 v 29.107 c -95.323,15.201 -167.195,61.144 -212.89,141.408 v 0 C 690.5,1876.917 360.123,1973.351 232.423,2043.871 v 0 c 32.896,-136.336 46.265,-161.589 251.703,-216.169" /></g></g></g></g><g
       id="g56"><g
         id="g58"><g
           id="g64"><g
             id="g66"><path
               id="path76"
               style="fill:url(#linearGradient74);stroke:none"
               d="m 487.538,1668.226 750.25,-122.577 -3.91,37.661 -888.013,216.118 c 25.388,-59.497 60.507,-111.969 141.673,-131.202" /></g></g></g></g><g
       id="g78"><g
         id="g80"><g
           id="g86"><g
             id="g88"><path
               id="path98"
               style="fill:url(#linearGradient96);stroke:none"
               d="m 619.891,1502.519 625.607,-9.192 -7.71,35.506 -777.885,87.041 c 32.743,-63.092 83.581,-103.942 159.988,-113.355" /></g></g></g></g><g
       id="g100"><g
         id="g102"><g
           id="g108"><g
             id="g110"><path
               id="path120"
               style="fill:url(#linearGradient118);stroke:none"
               d="m 658.996,1469.479 c 16.656,-34.235 57.926,-66.397 118.26,-66.397 v 0 h 542.422 v 66.397 z" /></g></g></g></g><g
       id="g122"><g
         id="g124"><g
           id="g130"><g
             id="g132"><path
               id="path142"
               style="fill:url(#linearGradient140);stroke:none"
               d="m 1716.913,1896.651 c 15.063,-130.13 -84.469,-143.188 -172.12,-130.63 v 0 l 4.268,-272.694 h 35.025 l 21.228,187.863 c 105.608,6.288 180.006,48.319 216.519,133.733 v 0 c 409.43,122.449 855.106,249.387 850.158,320.533 v 0 z" /></g></g></g></g><g
       id="g144"><g
         id="g146"><g
           id="g152"><g
             id="g154"><path
               id="path164"
               style="fill:url(#linearGradient162);stroke:none"
               d="m 1853.516,1781.256 c -45.695,-80.264 -117.567,-126.207 -212.89,-141.408 v 0 -29.107 l 743.594,216.961 c 205.439,54.58 218.808,79.833 251.704,216.169 v 0 c -127.701,-70.52 -458.077,-166.954 -782.408,-262.615" /></g></g></g></g><g
       id="g166"><g
         id="g168"><g
           id="g174"><g
             id="g176"><path
               id="path186"
               style="fill:url(#linearGradient184);stroke:none"
               d="m 1634.468,1583.31 -3.908,-37.661 750.249,122.577 c 81.166,19.233 116.285,71.705 141.673,131.202 v 0 z" /></g></g></g></g><g
       id="g188"><g
         id="g190"><g
           id="g196"><g
             id="g198"><path
               id="path208"
               style="fill:url(#linearGradient206);stroke:none"
               d="m 1630.56,1528.833 -7.711,-35.506 625.607,9.192 c 76.408,9.413 127.245,50.263 159.988,113.355 v 0 z" /></g></g></g></g><g
       id="g210"><g
         id="g212"><g
           id="g218"><g
             id="g220"><path
               id="path230"
               style="fill:url(#linearGradient228);stroke:none"
               d="m 1548.669,1469.479 v -66.397 h 542.422 c 60.334,0 101.604,32.162 118.26,66.397 v 0 z" /></g></g></g></g><g
       id="g232"><g
         clip-path="url(#clipPath238)"
         id="g234"><g
           transform="translate(1544.3644,944.5004)"
           id="g240"><path
             id="path242"
             style="fill:#0552e3;fill-opacity:1;fill-rule:nonzero;stroke:none"
             d="m 0,0 v -139.06 c -44.412,-40.771 -168.182,-40.043 -219.874,0 V 0 Z" /></g><g
           transform="translate(1349.0562,843.5552)"
           id="g244"><path
             id="path246"
             style="fill:#3d86f6;fill-opacity:1;fill-rule:nonzero;stroke:none"
             d="m 0,0 c -2.727,-8.432 -2.711,-16.816 0,-25.151 57.718,-19.347 115.436,-19.347 173.154,0 2.955,8.791 3.275,17.219 0,25.151 C 114.393,-16.329 56.62,-17.205 0,0" /></g><g
           transform="translate(1343.8011,1403.082)"
           id="g248"><path
             id="path250"
             style="fill:#0552e3;fill-opacity:1;fill-rule:nonzero;stroke:none"
             d="m 0,0 11.174,362.683 c 19.293,-1.489 34.832,8.668 46.862,29.715 V 348.78 c 5.838,-16.65 17.734,-21.809 33.826,-21.809 16.166,0 30.333,6.451 31.601,21.809 v 43.618 c 11.947,-17.84 26.918,-29.794 48.068,-29.715 L 181.866,0 Z" /></g><g
           transform="translate(1464.3164,1826.1796)"
           id="g252"><path
             id="path254"
             style="fill:#0058dc;fill-opacity:1;fill-rule:nonzero;stroke:none"
             d="m 0,0 -21.296,18.725 c -4.481,3.774 -9.338,3.984 -14.637,0 l -21.89,-20.571 v -13.45 l 21.89,20.307 c 5.299,3.666 10.156,3.473 14.637,0 L 0,-15.164 Z" /></g><g
           transform="translate(1464.3164,1870.8192)"
           id="g256"><path
             id="path258"
             style="fill:#0058dc;fill-opacity:1;fill-rule:nonzero;stroke:none"
             d="m 0,0 -21.296,18.725 c -4.481,3.774 -9.338,3.984 -14.637,0 l -21.89,-20.571 v -13.45 l 21.89,20.307 c 5.299,3.666 10.156,3.473 14.637,0 L 0,-15.164 Z" /></g><g
           transform="translate(1464.3164,1915.4589)"
           id="g260"><path
             id="path262"
             style="fill:#0058dc;fill-opacity:1;fill-rule:nonzero;stroke:none"
             d="m 0,0 -21.296,18.725 c -4.481,3.774 -9.338,3.984 -14.637,0 l -21.89,-20.571 v -13.45 l 21.89,20.307 c 5.299,3.666 10.156,3.473 14.637,0 L 0,-15.164 Z" /></g><g
           transform="translate(1464.3164,1960.0985)"
           id="g264"><path
             id="path266"
             style="fill:#0058dc;fill-opacity:1;fill-rule:nonzero;stroke:none"
             d="m 0,0 -21.296,18.725 c -4.481,3.774 -9.338,3.984 -14.637,0 l -21.89,-20.571 v -13.45 l 21.89,20.307 c 5.299,3.666 10.156,3.473 14.637,0 L 0,-15.164 Z" /></g><g
           transform="translate(1464.3164,2004.7382)"
           id="g268"><path
             id="path270"
             style="fill:#0058dc;fill-opacity:1;fill-rule:nonzero;stroke:none"
             d="m 0,0 -21.296,18.725 c -4.481,3.774 -9.338,3.984 -14.637,0 l -21.89,-20.571 v -13.45 l 21.89,20.307 c 5.299,3.666 10.156,3.473 14.637,0 L 0,-15.164 Z" /></g><g
           transform="translate(1464.3164,2049.3777)"
           id="g272"><path
             id="path274"
             style="fill:#0058dc;fill-opacity:1;fill-rule:nonzero;stroke:none"
             d="m 0,0 -21.296,18.725 c -4.481,3.775 -9.338,3.984 -14.637,0 l -21.89,-20.571 v -13.45 l 21.89,20.307 c 5.299,3.666 10.156,3.473 14.637,0 L 0,-15.164 Z" /></g><g
           transform="translate(1464.3164,2094.0173)"
           id="g276"><path
             id="path278"
             style="fill:#0058dc;fill-opacity:1;fill-rule:nonzero;stroke:none"
             d="m 0,0 -21.296,18.725 c -4.481,3.775 -9.338,3.984 -14.637,0 l -21.89,-20.571 v -13.45 l 21.89,20.307 c 5.299,3.666 10.156,3.473 14.637,0 L 0,-15.164 Z" /></g><g
           transform="translate(1473.7,2146.9102)"
           id="g280"><path
             id="path282"
             style="fill:#0058dc;fill-opacity:1;fill-rule:nonzero;stroke:none"
             d="m 0,0 c 0,-9.26 -4.48,-17.63 -11.68,-23.59 l -19,16.71 c -4.48,3.77 -9.34,3.98 -14.64,0 l -18.61,-17.5 c -7.77,6.01 -12.66,14.7 -12.66,24.38 0,18.12 17.15,32.81 38.3,32.81 C -17.15,32.81 0,18.12 0,0" /></g><g
           transform="translate(1473.7,2146.9102)"
           id="g284"><path
             id="path286"
             style="fill:none;stroke:#0058dc;stroke-width:0.89300001;stroke-linecap:butt;stroke-linejoin:miter;stroke-miterlimit:10;stroke-dasharray:none;stroke-opacity:1"
             d="m 0,0 c 0,-9.26 -4.48,-17.63 -11.68,-23.59 l -19,16.71 c -4.48,3.77 -9.34,3.98 -14.64,0 l -18.61,-17.5 c -7.77,6.01 -12.66,14.7 -12.66,24.38 0,18.12 17.15,32.81 38.3,32.81 C -17.15,32.81 0,18.12 0,0 Z" /></g></g></g><g
       id="g288"><g
         id="g290"><g
           id="g296"><g
             id="g298"><path
               id="path306"
               style="fill:url(#linearGradient304);stroke:none"
               d="m 974.32,1148.734 -38.71,-114.311 c 0,0 -5.426,-26.854 -30.685,-27.239 v 0 c -19.923,-0.304 -5.566,30.752 -5.566,30.752 v 0 l 38.674,110.244 -44.825,-0.685 -44.508,-122.87 c 0,0 -11.43,-49.667 45.043,-48.732 v 0 c 60.834,1.008 75.131,42.433 75.131,42.433 v 0 l 39.244,130.924 z" /></g></g></g></g><g
       id="g308"><g
         id="g310"><g
           id="g316"><g
             id="g318"><path
               id="path326"
               style="fill:url(#linearGradient324);stroke:none"
               d="M 947.23,1373.07 902.81,1236.61 886.6,1186.8 h 98.76 l 11.88,43.75 h -48.13 l 8.44,27.1 35.94,115.42 z" /></g></g></g></g><g
       id="g328"><g
         id="g330"><g
           id="g336"><g
             id="g338"><path
               id="path346"
               style="fill:url(#linearGradient344);stroke:none"
               d="m 1406.209,1369.21 -21.769,-39.81 -23.22,-42.45 2.61,41.76 2.53,40.5 h -43.09 l -3.91,-42.82 -12.76,-139.59 h 52.05 l 2.57,91.2 31.489,-89.33 h 62.981 l -51.09,102.56 21.61,38.85 21.77,39.13 z" /></g></g></g></g><g
       id="g348"><g
         id="g350"><g
           id="g356"><g
             id="g358"><path
               id="path366"
               style="fill:url(#linearGradient364);stroke:none"
               d="m 1133.26,1373.07 -16.94,-72.89 -11.75,-50.55 c 0,0 -2.95,-29.05 -29.06,-29.05 v 0 c -20.6,0 -8.83,33.47 -8.83,33.47 v 0 l 9.14,37.44 19.92,81.58 h -46.35 l -24.07,-94.36 -9.77,-38.27 c 0,0 -13.24,-53.64 51.5,-53.64 v 0 c 62.9,0 73.56,44.81 73.56,44.81 v 0 l 14.78,75.77 12.81,65.69 z" /></g></g></g></g><g
       id="g368"><g
         id="g370"><g
           id="g376"><g
             id="g378"><path
               id="path386"
               style="fill:url(#linearGradient384);stroke:none"
               d="m 1249.429,1375.33 c -25.129,-2.32 -55.629,-28.73 -70.069,-64.08 v 0 c -4.26,-10.44 -7.13,-21.65 -8.04,-33.25 v 0 c -4.01,-50.89 6.6,-90.46 63.13,-91.2 v 0 c 56.54,-0.75 45.03,11.77 45.03,11.77 v 0 l 2,35.05 c 0,0 -8.51,-12.01 -27.04,-11.51 v 0 c -18.53,0.5 -39.06,17.51 -31.55,57.82 v 0 c 3.16,16.99 8.29,29.84 14.569,39.1 v 0 c 8.64,12.72 19.491,18.67 30.501,19.25 v 0 c 13,0.68 26.54,-10.02 26.54,-10.02 v 0 l 3.09,36.36 c 0,0 -12.673,11.142 -39.002,11.141 v 0 c -2.887,0 -5.942,-0.134 -9.159,-0.431" /></g></g></g></g><g
       id="g388"><g
         id="g390"><g
           id="g396"><g
             id="g398"><path
               id="path406"
               style="fill:url(#linearGradient404);stroke:none"
               d="m 1563.58,1372.69 2.96,-47.54 2.94,-47.15 -32.81,49.14 -28.09,42.07 h -39.5 l 0.399,-39.46 1.451,-141.82 h 38.39 l -1.48,100.05 63.12,-101.18 h 43.18 l -12.9,135.36 -4.81,50.53 z" /></g></g></g></g><g
       id="g408"><g
         id="g410"><g
           id="g416"><g
             id="g418"><path
               id="path426"
               style="fill:url(#linearGradient424);stroke:none"
               d="m 1928.14,1372.81 14.12,-126.74 0.4,-3.55 -1.78,4.08 -54.9,126.21 h -45.96 l 6.46,-95.06 2.87,-42.14 -17.81,46.21 -35.07,90.99 h -42.501 c 0,0 15.331,-38.22 31.971,-79.81 v 0 c 19.73,-49.32 41.289,-103.38 41.289,-104.13 v 0 c 0,-1.38 54.611,0 54.611,0 v 0 l -1.95,79 -0.88,35.48 17.1,-40.7 31,-73.78 h 57.02 l -4.54,41.63 -15.5,142.31 z" /></g></g></g></g><g
       id="g428"><g
         id="g430"><g
           id="g436"><g
             id="g438"><path
               id="path446"
               style="fill:url(#linearGradient444);stroke:none"
               d="m 1671.93,1374.33 c -25.23,-5.64 -39.59,-24.84 -44.04,-54.96 v 0 c -2.441,-16.55 -1.9,-36.4 1.47,-59.1 v 0 c 7.84,-52.85 44.95,-80.27 95.07,-76.04 v 0 c 47.21,3.99 56.38,63.16 42.92,112.81 v 0 c -0.11,0.42 -0.22,0.83 -0.34,1.25 v 0 c -11.788,42.168 -48.506,77.261 -83.88,77.262 v 0 c -3.76,0 -7.502,-0.396 -11.2,-1.222 m 4.05,-96.51 c -1.8,13.05 -2.59,25.35 -1.95,35.64 v 0 c 1.01,16.33 5.63,27.56 15.54,28.55 v 0 c 9.97,0.99 19.59,-13.39 25.71,-35.03 v 0 c 1.99,-7.02 3.61,-14.81 4.75,-23.08 v 0 c 4.66,-33.77 4.63,-64.19 -13.59,-64.19 v 0 c -15.68,0 -25.8,24.34 -30.46,58.11" /></g></g></g></g><g
       id="g448"><g
         id="g450"><g
           id="g456"><g
             id="g458"><path
               id="path466"
               style="fill:url(#linearGradient464);stroke:none"
               d="m 766.398,1103.176 c -19.318,-51.396 28.278,-52.665 16.838,-83.436 v 0 c -8.764,-23.573 -52.673,-6.126 -52.673,-6.126 v 0 c 0,0 -1.902,-4.232 -15.446,-32.514 v 0 c 58.159,-17.926 99.007,3.701 117.117,43.022 v 0 c 15.329,33.284 -9.96,53.778 -18.723,66.525 v 0 c -8.764,12.748 -0.797,29.877 16.332,29.877 v 0 c 17.13,0 26.292,-6.373 26.292,-6.373 v 0 l 14.739,35.852 c -9.738,2.483 -19.47,3.766 -28.915,3.765 v 0 c -33.021,0 -62.444,-15.69 -75.561,-50.592" /></g></g></g></g><g
       id="g468"><g
         id="g470"><g
           id="g476"><g
             id="g478"><path
               id="path486"
               style="fill:url(#linearGradient484);stroke:none"
               d="M 1038.81,1154.17 988.68,976.19 h 47.15 c 0,0 10.17,45.41 11.48,57.55 v 0 c 1.88,0.028 3.888,0.011 5.999,-0.01 v 0 c 22.559,-0.186 56.866,-0.371 73.071,55.127 v 0 c 17.71,60.7 -28.21,65.31 -28.21,65.31 v 0 h -59.36 z m 17.06,-85.82 14.48,51.87 c 0,0 25.29,5.32 17.96,-26.761 v 0 c -5.111,-22.361 -18.867,-25.746 -26.727,-25.746 v 0 c -3.413,-10e-4 -5.713,0.637 -5.713,0.637" /></g></g></g></g><g
       id="g488"><g
         id="g490"><g
           id="g496"><g
             id="g498"><path
               id="path506"
               style="fill:url(#linearGradient504);stroke:none"
               d="m 1265.73,1152.42 -18.75,-175.24 48,-0.32 c 0,0 2.5,53.76 2.5,66.26 v 0 c 18.63,0.71 25.63,-67.19 25.63,-67.19 v 0 l 50.01,1.87 -30.94,71.89 c 0,0 24.69,4.37 26.56,52.499 v 0 c 1.88,48.141 -35.88,50.231 -35.88,50.231 v 0 z m 33.5,-80.57 7.07,48.11 c 0,0 22.05,7.64 19.13,-21.93 v 0 c -2.367,-24.053 -18.219,-26.297 -24.052,-26.297 v 0 c -1.338,-10e-4 -2.148,0.117 -2.148,0.117" /></g></g></g></g><g
       id="g508"><g
         id="g510"><g
           id="g516"><g
             id="g518"><path
               id="path526"
               style="fill:url(#linearGradient524);stroke:none"
               d="m 1153.794,1152.526 -29.082,-175.567 h 94.81 l 9.09,35.716 h -55.196 l 7.143,38.799 h 42.859 c 1.298,0 6.168,31.983 6.168,31.983 v 0 h -42.209 l 4.87,34.742 45.781,0.649 3.809,33.678 z" /></g></g></g></g><g
       id="g528"><g
         id="g530"><g
           id="g536"><g
             id="g538"><path
               id="path546"
               style="fill:url(#linearGradient544);stroke:none"
               d="m 1569.604,1150.866 14.904,-173.396 h 45.284 l -17.77,173.396 z" /></g></g></g></g><g
       id="g548"><g
         id="g550"><g
           id="g556"><g
             id="g558"><path
               id="path566"
               style="fill:url(#linearGradient564);stroke:none"
               d="m 1664.59,1152.65 -22.87,-177.5 h 37.71 l 5.21,47.94 h 42.12 l 15.25,-47.14 h 46.93 l -75.41,176.7 z m 28.83,-38.18 21.43,-61.72 h -30.01 z" /></g></g></g></g><g
       id="g568"><g
         id="g570"><g
           id="g576"><g
             id="g578"><path
               id="path586"
               style="fill:url(#linearGradient584);stroke:none"
               d="m 1498.763,1150.149 c -52.143,0 -77.265,-44.999 -78.215,-81.526 v 0 c -1.166,-44.878 5.008,-76.964 52.971,-91.044 v 0 c 45.958,-13.491 75.732,4.138 75.732,4.138 v 0 79.043 h -41.384 v -49.66 c -12,0 -31.865,-2.483 -35.589,40.141 v 0 c -3.725,42.626 6.277,66.504 32.364,66.983 v 0 c 26.089,0.479 34.921,-15.557 34.921,-15.557 v 0 37.135 c 0,0 -4.777,10.347 -40.609,10.347 v 0 c -0.063,0 -0.127,0 -0.191,0" /></g></g></g></g><g
       id="g588"><g
         id="g590"><g
           id="g596"><g
             id="g598"><path
               id="path606"
               style="fill:url(#linearGradient604);stroke:none"
               d="m 1851.815,1152.904 26.084,-91.892 -74.054,91.742 h -42.574 l 37.177,-175.09 h 38.976 l -24.585,95.94 83.348,-96.689 h 38.975 l -51.268,175.989 z" /></g></g></g></g><g
       id="g608"><g
         id="g610"><g
           id="g616"><g
             id="g618"><path
               id="path626"
               style="fill:url(#linearGradient624);stroke:none"
               d="m 1899.292,1151.626 6.093,-34.018 33.256,-0.127 43.157,-141.529 49.504,0.254 -51.281,141.275 31.479,-0.38 -12.694,36.302 z" /></g></g></g></g><g
       id="g628"><g
         id="g630"><g
           id="g636"><g
             id="g638"><path
               id="path646"
               style="fill:url(#linearGradient644);stroke:none"
               d="m 2050.916,1155.507 c -22.356,-1.146 -43.564,-19.202 -19.776,-65.632 v 0 c 23.788,-46.429 82.829,-38.978 75.377,-73.944 v 0 c -7.452,-22.355 -42.704,1.434 -42.704,1.434 v 0 c 0,0 -4.742,-21.268 9.804,-34.282 v 0 c 6.612,-5.915 17.208,-10.125 34.046,-9.855 v 0 c 53.882,0.859 55.428,32.211 40.637,62.463 v 0 c -14.79,30.253 -85.715,55.127 -84.035,76.976 v 0 c 1.681,21.85 41.679,0.136 41.679,0.136 v 0 l -12.037,33.819 c 0,0 -18.466,8.976 -39.384,8.977 v 0 c -1.196,0 -2.399,-0.03 -3.607,-0.092" /></g></g></g></g><g
       id="g648"><g
         clip-path="url(#clipPath654)"
         id="g650"><g
           transform="translate(1505.04,1564.0601)"
           id="g656"><path
             id="path658"
             style="fill:#e40511;fill-opacity:1;fill-rule:nonzero;stroke:none"
             d="m 0,0 c 0,-37.71 -30.57,-68.27 -68.27,-68.27 -24.41,0 -45.83,12.81 -57.9,32.09 20.8,47.57 60.86,71.93 116.39,71.38 C -3.56,24.93 0,12.88 0,0" /></g><g
           transform="translate(1505.04,1564.0601)"
           id="g660"><path
             id="path662"
             style="fill:none;stroke:#000000;stroke-width:1;stroke-linecap:butt;stroke-linejoin:miter;stroke-miterlimit:10;stroke-dasharray:none;stroke-opacity:1"
             d="m 0,0 c 0,-37.71 -30.57,-68.27 -68.27,-68.27 -24.41,0 -45.83,12.81 -57.9,32.09 20.8,47.57 60.86,71.93 116.39,71.38 C -3.56,24.93 0,12.88 0,0 Z" /></g><g
           transform="translate(1495.26,1599.26)"
           id="g664"><path
             id="path666"
             style="fill:#fdfdfb;fill-opacity:1;fill-rule:nonzero;stroke:none"
             d="m 0,0 c -55.53,0.55 -95.59,-23.81 -116.39,-71.38 -2.28,3.63 -4.22,7.5 -5.79,11.56 20.91,47.26 58.5,71.43 114.07,70.68 C -5.06,7.53 -2.33,3.89 0,0" /></g><g
           transform="translate(1495.26,1599.26)"
           id="g668"><path
             id="path670"
             style="fill:none;stroke:#000000;stroke-width:1;stroke-linecap:butt;stroke-linejoin:miter;stroke-miterlimit:10;stroke-dasharray:none;stroke-opacity:1"
             d="m 0,0 c -55.53,0.55 -95.59,-23.81 -116.39,-71.38 -2.28,3.63 -4.22,7.5 -5.79,11.56 20.91,47.26 58.5,71.43 114.07,70.68 C -5.06,7.53 -2.33,3.89 0,0 Z" /></g><g
           transform="translate(1472.49,1622.24)"
           id="g672"><path
             id="path674"
             style="fill:#e40511;fill-opacity:1;fill-rule:nonzero;stroke:none"
             d="m 0,0 c -49.16,-1.56 -83.36,-23.84 -103.59,-65.48 -0.26,2.4 -0.39,4.83 -0.39,7.3 0,37.7 30.56,68.26 68.26,68.26 C -22.63,10.08 -10.39,6.39 0,0" /></g><g
           transform="translate(1472.49,1622.24)"
           id="g676"><path
             id="path678"
             style="fill:none;stroke:#000000;stroke-width:1;stroke-linecap:butt;stroke-linejoin:miter;stroke-miterlimit:10;stroke-dasharray:none;stroke-opacity:1"
             d="m 0,0 c -49.16,-1.56 -83.36,-23.84 -103.59,-65.48 -0.26,2.4 -0.39,4.83 -0.39,7.3 0,37.7 30.56,68.26 68.26,68.26 C -22.63,10.08 -10.39,6.39 0,0 Z" /></g><g
           transform="translate(1487.15,1610.12)"
           id="g680"><path
             id="path682"
             style="fill:#fdfdfb;fill-opacity:1;fill-rule:nonzero;stroke:none"
             d="m 0,0 c -55.57,0.75 -93.16,-23.42 -114.07,-70.68 -2.11,5.46 -3.54,11.27 -4.18,17.31 -0.01,0.01 0,0.01 0,0.01 20.23,41.64 54.43,63.92 103.59,65.48 C -9.22,8.78 -4.28,4.69 0,0" /></g><g
           transform="translate(1487.15,1610.12)"
           id="g684"><path
             id="path686"
             style="fill:none;stroke:#000000;stroke-width:1;stroke-linecap:butt;stroke-linejoin:miter;stroke-miterlimit:10;stroke-dasharray:none;stroke-opacity:1"
             d="m 0,0 c -55.57,0.75 -93.16,-23.42 -114.07,-70.68 -2.11,5.46 -3.54,11.27 -4.18,17.31 -0.01,0.01 0,0.01 0,0.01 20.23,41.64 54.43,63.92 103.59,65.48 C -9.22,8.78 -4.28,4.69 0,0 Z" /></g><g
           id="g688"><g
             id="g690" /><g
             id="g826"><g
               style="opacity:0.5"
               id="g824"
               clip-path="url(#clipPath694)"><g
                 id="g738"><g
                   id="g728" /><g
                   id="g736"><g
                     id="g734"
                     clip-path="url(#clipPath698)"><g
                       id="g732"
                       transform="translate(949.11,1230.55)"><path
                         id="path730"
                         style="fill:#ffffff;fill-opacity:1;fill-rule:nonzero;stroke:none"
                         d="M 0,0 H 48.13 L 36.25,-43.75 H -62.51 L -46.3,6.06 c 17.43,7.39 35.7,14.42 54.74,21.04 z" /></g></g></g></g><g
                 id="g750"><g
                   id="g740" /><g
                   id="g748"><g
                     id="g746"
                     clip-path="url(#clipPath702)"><g
                       id="g744"
                       transform="translate(1155.39,1307.38)"><path
                         id="path742"
                         style="fill:#ffffff;fill-opacity:1;fill-rule:nonzero;stroke:none"
                         d="m 0,0 -14.78,-75.77 c 0,0 -10.66,-44.81 -73.56,-44.81 -64.74,0 -51.5,53.64 -51.5,53.64 l 9.77,38.27 c 16.41,4.54 33.25,8.8 50.5,12.78 l -9.14,-37.44 c 0,0 -11.77,-33.47 8.83,-33.47 26.11,0 29.06,29.05 29.06,29.05 L -39.07,-7.2 C -26.24,-4.65 -13.21,-2.25 0,0" /></g></g></g></g><g
                 id="g762"><g
                   id="g752" /><g
                   id="g760"><g
                     id="g758"
                     clip-path="url(#clipPath706)"><g
                       id="g756"
                       transform="translate(1281.48,1233.62)"><path
                         id="path754"
                         style="fill:#ffffff;fill-opacity:1;fill-rule:nonzero;stroke:none"
                         d="m 0,0 -2,-35.05 c 0,0 11.51,-12.52 -45.03,-11.77 -56.53,0.74 -67.14,40.31 -63.13,91.2 0.91,11.6 3.78,22.81 8.04,33.25 19.02,2.92 38.4,5.52 58.1,7.78 C -50.3,76.15 -55.43,63.3 -58.59,46.31 -66.1,6 -45.57,-11.01 -27.04,-11.51 -8.51,-12.01 0,0 0,0" /></g></g></g></g><g
                 id="g774"><g
                   id="g764" /><g
                   id="g772"><g
                     id="g770"
                     clip-path="url(#clipPath710)"><g
                       id="g768"
                       transform="translate(1455.6899,1188.6699)"><path
                         id="path766"
                         style="fill:#ffffff;fill-opacity:1;fill-rule:nonzero;stroke:none"
                         d="m 0,0 h -62.98 l -31.49,89.33 -2.57,-91.2 h -52.05 l 12.76,139.59 c 14.69,0.96 29.52,1.74 44.47,2.32 l -2.61,-41.76 23.22,42.45 c 13.82,0.4 27.75,0.62 41.77,0.68 l -21.61,-38.85 z" /></g></g></g></g><g
                 id="g786"><g
                   id="g776" /><g
                   id="g784"><g
                     id="g782"
                     clip-path="url(#clipPath714)"><g
                       id="g780"
                       transform="translate(1570.96,1186.8)"><path
                         id="path778"
                         style="fill:#ffffff;fill-opacity:1;fill-rule:nonzero;stroke:none"
                         d="M 0,0 -63.12,101.18 -61.64,1.13 h -38.39 l -1.45,141.82 c 22.67,-0.44 45.08,-1.32 67.19,-2.61 L -1.48,91.2 -4.42,138.35 c 11.66,-0.88 23.23,-1.87 34.7,-2.99 L 43.18,0 Z" /></g></g></g></g><g
                 id="g798"><g
                   id="g788" /><g
                   id="g796"><g
                     id="g794"
                     clip-path="url(#clipPath718)"><g
                       id="g792"
                       transform="translate(1724.4299,1184.23)"><path
                         id="path790"
                         style="fill:#ffffff;fill-opacity:1;fill-rule:nonzero;stroke:none"
                         d="m 0,0 c -50.12,-4.23 -87.23,23.19 -95.07,76.04 -3.37,22.7 -3.91,42.55 -1.47,59.1 15.59,-1.76 30.97,-3.73 46.14,-5.91 -0.64,-10.29 0.15,-22.59 1.95,-35.64 4.66,-33.77 14.78,-58.11 30.46,-58.11 18.22,0 18.25,30.42 13.59,64.19 -1.14,8.27 -2.76,16.06 -4.75,23.08 17.7,-3.04 35.07,-6.35 52.07,-9.94 C 56.38,63.16 47.21,3.99 0,0" /></g></g></g></g><g
                 id="g810"><g
                   id="g800" /><g
                   id="g808"><g
                     id="g806"
                     clip-path="url(#clipPath722)"><g
                       id="g804"
                       transform="translate(1881.8401,1188.8701)"><path
                         id="path802"
                         style="fill:#ffffff;fill-opacity:1;fill-rule:nonzero;stroke:none"
                         d="m 0,0 c 0,0 -54.61,-1.38 -54.61,0 0,0.75 -21.56,54.81 -41.29,104.13 15.53,-3.5 30.74,-7.23 45.6,-11.18 l 17.81,-46.21 -2.87,42.14 C -24.01,85.72 -12.87,82.42 -1.95,79 Z" /></g></g></g></g><g
                 id="g822"><g
                   id="g812" /><g
                   id="g820"><g
                     id="g818"
                     clip-path="url(#clipPath726)"><g
                       id="g816"
                       transform="translate(1984.1299,1188.8701)"><path
                         id="path814"
                         style="fill:#ffffff;fill-opacity:1;fill-rule:nonzero;stroke:none"
                         d="m 0,0 h -57.02 l -31,73.78 c 15.41,-5.1 30.34,-10.46 44.77,-16.05 0.46,-0.17 0.92,-0.35 1.38,-0.53 12.86,-5 25.31,-10.19 37.33,-15.57 z" /></g></g></g></g></g></g></g></g></g></g></svg>