<?xml version="1.0" encoding="UTF-8" standalone="no"?>
<!-- Created with Inkscape (http://www.inkscape.org/) -->

<svg
   version="1.1"
   id="svg2"
   width="502.29333"
   height="559.06668"
   viewBox="0 0 202.29333 259.06668"
   sodipodi:docname="punjab-kings-seeklogo.com.eps"
   xmlns:inkscape="http://www.inkscape.org/namespaces/inkscape"
   xmlns:sodipodi="http://sodipodi.sourceforge.net/DTD/sodipodi-0.dtd"
   xmlns="http://www.w3.org/2000/svg"
   xmlns:svg="http://www.w3.org/2000/svg">
  <defs
     id="defs6">
    <clipPath
       clipPathUnits="userSpaceOnUse"
       id="clipPath18">
      <path
         d="M 0,0 H 1517 V 1943 H 0 Z"
         id="path16" />
    </clipPath>
    <clipPath
       clipPathUnits="userSpaceOnUse"
       id="clipPath24">
      <path
         d="m 1475.46,1798.02 c -85.74,-26.22 -174.89,-39.64 -264.55,-39.83 -78.78,0 -152.57,11.14 -218.851,33.18 -79.629,25.9 -152.024,70.22 -211.313,129.35 l -22.125,22.29 -22.293,-22.29 c -59.422,-59.17 -132.051,-103.37 -211.902,-128.97 -66.836,-21.91 -141.047,-33.01 -220.383,-33.01 -88.746,0.16 -177.016,13 -262.1289,38.14 L 0,1810.78 V 853.602 C 0,719.25 36.2344,591.77 107.691,474.629 165.625,379.738 246.445,291.762 347.992,213.18 524.637,76.5 711.578,8.89844 756.121,0.980469 L 761.633,0 767.141,0.980469 C 805.285,7.71875 995.406,75.2305 1172.69,213.82 c 100.57,78.66 180.67,166.641 238.01,261.489 69.83,113.812 106.71,244.773 106.54,378.293 v 958.958 z"
         id="path22" />
    </clipPath>
    <linearGradient
       x1="0"
       y1="0"
       x2="1"
       y2="0"
       gradientUnits="userSpaceOnUse"
       gradientTransform="matrix(1517.25,0,0,1517.25,-7.63e-5,971.507)"
       spreadMethod="pad"
       id="linearGradient38">
      <stop
         style="stop-opacity:1;stop-color:#fcd190"
         offset="0"
         id="stop26" />
      <stop
         style="stop-opacity:1;stop-color:#b7a785"
         offset="0.13"
         id="stop28" />
      <stop
         style="stop-opacity:1;stop-color:#fde1b1"
         offset="0.25"
         id="stop30" />
      <stop
         style="stop-opacity:1;stop-color:#b68a67"
         offset="0.5"
         id="stop32" />
      <stop
         style="stop-opacity:1;stop-color:#fde1b1"
         offset="0.64"
         id="stop34" />
      <stop
         style="stop-opacity:1;stop-color:#b68a67"
         offset="1"
         id="stop36" />
    </linearGradient>
    <clipPath
       clipPathUnits="userSpaceOnUse"
       id="clipPath54">
      <path
         d="m 850.844,1459.86 v -268.27 c 0,-23.56 17.883,-28.1 28.523,-28.69 58.442,-3.39 134.133,-8.9 206.103,-21.87 0,29.67 0,166.6 0,168.13 0,38.14 -35.14,40.05 -36.62,40.13 l -63.573,2.34 -10.597,-29.17 c 12.715,-0.84 28.61,-1.82 30.35,-1.82 h 4.66 v -4.62 -131.63 l -5.6,1.23 c -15.719,3.47 -72.594,5.76 -73.188,5.76 l -4.238,0.21 v 238.61 h 83.276 v -23.44 c 0,-3.81 4.71,-7.33 9.96,-7.46 l 65.48,-3.51 v 37.03 c 0,16.03 -15.77,27.26 -38.14,27.26 z m 243.776,-329.68 -5.42,1.02 c -73.03,13.6 -150.712,19.28 -210.216,22.72 -23.437,1.31 -37.379,15.47 -37.336,37.88 v 277.47 h 205.502 c 30.77,0 47.05,-18.31 47.22,-36.45 v -46.61 l -75.02,3.98 c -10.26,0.3 -18.77,7.76 -18.82,16.66 v 14.24 h -64.882 v -220.38 c 12.418,-0.56 47.34,-2.25 64.802,-4.83 v 115.95 c -8.477,0.46 -26.235,1.61 -32.591,2.03 l -6.144,0.43 16.949,47 70.356,-2.59 c 0.51,0 45.52,-2.37 45.52,-49.33 v -179.19 z"
         id="path52" />
    </clipPath>
    <linearGradient
       x1="0"
       y1="0"
       x2="1"
       y2="0"
       gradientUnits="userSpaceOnUse"
       gradientTransform="matrix(261.908,261.866,-261.866,261.908,842.421,1174.04)"
       spreadMethod="pad"
       id="linearGradient64">
      <stop
         style="stop-opacity:1;stop-color:#fcd190"
         offset="0"
         id="stop56" />
      <stop
         style="stop-opacity:1;stop-color:#fcd190"
         offset="0.06"
         id="stop58" />
      <stop
         style="stop-opacity:1;stop-color:#b7a785"
         offset="0.5"
         id="stop60" />
      <stop
         style="stop-opacity:1;stop-color:#fcd190"
         offset="1"
         id="stop62" />
    </linearGradient>
    <clipPath
       clipPathUnits="userSpaceOnUse"
       id="clipPath76">
      <path
         d="m 562.863,1460.25 v -303.11 c 17.547,1.9 35.473,2.88 52.809,3.85 7.586,0.43 15.215,0.85 22.883,1.36 v 213.6 l 83.535,-120.32 v -89.47 c 15.129,0.34 30.047,0.55 44.414,0.55 9.539,0 19.582,0 31.195,-0.29 v 293.44 h -75.226 l -0.215,-114.85 -81.496,114.85 z m -9.195,-313.62 v 322.64 h 91.84 l 67.597,-95.23 v 95.23 h 93.493 v -312.26 h -4.703 c -13.649,0.29 -25.008,0.42 -35.727,0.42 -15.809,0 -32.254,-0.25 -48.91,-0.68 h -4.746 l 0.211,96.04 -65.137,93.79 v -192.96 l -4.238,-0.3 c -9.157,-0.63 -18.227,-1.14 -27.297,-1.65 -18.903,-1.06 -38.438,-2.16 -57.34,-4.24 z"
         id="path74" />
    </clipPath>
    <linearGradient
       x1="0"
       y1="0"
       x2="1"
       y2="0"
       gradientUnits="userSpaceOnUse"
       gradientTransform="matrix(287.808,287.765,-287.765,287.808,533.633,1166.66)"
       spreadMethod="pad"
       id="linearGradient86">
      <stop
         style="stop-opacity:1;stop-color:#fcd190"
         offset="0"
         id="stop78" />
      <stop
         style="stop-opacity:1;stop-color:#fcd190"
         offset="0.06"
         id="stop80" />
      <stop
         style="stop-opacity:1;stop-color:#b7a785"
         offset="0.5"
         id="stop82" />
      <stop
         style="stop-opacity:1;stop-color:#fcd190"
         offset="1"
         id="stop84" />
    </linearGradient>
    <clipPath
       clipPathUnits="userSpaceOnUse"
       id="clipPath98">
      <path
         d="m 1135.14,1131.24 c 78.32,-16.26 155.11,-39.18 229.53,-68.53 v 220.04 c 0.92,22.89 -15.08,42.99 -37.59,47.22 l 0.72,4.24 v 0 l -0.76,-4.24 c -0.34,0 -36.03,5.97 -111.89,11.78 l -4.24,0.3 v 88.15 h 77.9 v -34.67 c 0,-11.1 11.44,-12.25 11.95,-12.29 l 63.83,-8.47 v 52.97 c 0.36,9.16 -3.5,17.99 -10.47,23.95 -7.24,5.69 -16.23,8.68 -25.43,8.47 h -193.55 v -111.8 c 0,-30.85 33.65,-35.13 35.09,-35.3 1.44,-0.17 91.46,-10.3 114.72,-13.44 l 3.99,-0.51 v -159.6 l -5.89,1.65 c -21.75,6.23 -68.11,15.34 -68.58,15.43 l -3.73,0.71 v 3.82 c 0,0 0,59.33 0,63.36 -0.66,5.14 -4.56,9.27 -9.66,10.22 -16.7,2.92 -52.47,8.47 -65.94,10.5 0,-19.24 -0.09,-84.67 0,-113.96 z m 238.69,-82.17 -6.36,2.58 c -77.01,30.83 -156.62,54.71 -237.89,71.37 l -3.64,0.76 v 3.73 c 0,31.62 0,122.91 0,122.91 v 5.34 l 5.3,-0.81 c 0.51,0 50.64,-7.67 71.62,-11.36 9.3,-1.87 16.23,-9.69 16.95,-19.15 v -59.67 c 10.43,-2.08 40.27,-8.18 59.76,-13.27 v 139.43 c -28.06,3.61 -109.68,12.72 -110.57,12.72 -14.96,1.69 -43.23,13.14 -43.23,44.46 v 121.16 h 202.62 c 11.4,0.28 22.53,-3.43 31.49,-10.47 9.08,-7.7 14.15,-19.12 13.78,-31.02 v -63.57 l -74.09,9.71 c -11.32,0.69 -20.15,10.09 -20.13,21.44 v 25.43 h -59.46 v -70.27 c 37.47,-2.92 64.55,-5.85 80.87,-7.8 14.41,-1.74 22.29,-2.71 26.57,-3.64 h 0.72 c 27.18,-4.69 46.7,-28.76 45.69,-56.33 z"
         id="path96" />
    </clipPath>
    <linearGradient
       x1="0"
       y1="0"
       x2="1"
       y2="0"
       gradientUnits="userSpaceOnUse"
       gradientTransform="matrix(284.575,284.575,-284.575,284.575,1120.18,1129.55)"
       spreadMethod="pad"
       id="linearGradient108">
      <stop
         style="stop-opacity:1;stop-color:#fcd190"
         offset="0"
         id="stop100" />
      <stop
         style="stop-opacity:1;stop-color:#fcd190"
         offset="0.06"
         id="stop102" />
      <stop
         style="stop-opacity:1;stop-color:#b7a785"
         offset="0.5"
         id="stop104" />
      <stop
         style="stop-opacity:1;stop-color:#fcd190"
         offset="1"
         id="stop106" />
    </linearGradient>
    <clipPath
       clipPathUnits="userSpaceOnUse"
       id="clipPath120">
      <path
         d="m 151.133,1459.86 v -397.49 c 27.461,11.44 55.48,21.48 83.957,30.09 v 208.56 l 23.265,3.94 50.477,-190.71 c 23.098,6.4 67.258,14.7 82.305,17.46 l -52.086,175.58 -26.196,-2.45 67.387,155.02 H 301.754 L 235.09,1318.73 v 141.13 z m -9.242,-411.39 v 420.8 h 102.437 v -109.42 l 51.578,109.42 h 98.239 l -66.625,-153.8 18.226,1.7 57.129,-192.58 -5.086,-0.93 c -0.637,0 -66.367,-11.87 -90.863,-19.41 l -4.578,-1.45 -50.731,191.78 -7.289,-1.23 v -207.41 l -3.308,-1.02 c -31.532,-9.33 -62.481,-20.52 -92.684,-33.53 z"
         id="path118" />
    </clipPath>
    <linearGradient
       x1="0"
       y1="0"
       x2="1"
       y2="0"
       gradientUnits="userSpaceOnUse"
       gradientTransform="matrix(336.527,336.527,-336.527,336.527,82.908,1107.46)"
       spreadMethod="pad"
       id="linearGradient130">
      <stop
         style="stop-opacity:1;stop-color:#fcd190"
         offset="0"
         id="stop122" />
      <stop
         style="stop-opacity:1;stop-color:#fcd190"
         offset="0.06"
         id="stop124" />
      <stop
         style="stop-opacity:1;stop-color:#b7a785"
         offset="0.5"
         id="stop126" />
      <stop
         style="stop-opacity:1;stop-color:#fcd190"
         offset="1"
         id="stop128" />
    </linearGradient>
    <clipPath
       clipPathUnits="userSpaceOnUse"
       id="clipPath142">
      <path
         d="m 431.566,1459.86 v -319.84 c 11.571,2.28 40.176,7.45 77.688,11.36 v 308.48 z m -9.195,-330.99 v 340.4 h 96.078 v -326.04 l -4.238,-0.42 c -28.981,-2.72 -57.797,-6.96 -86.332,-12.71 z"
         id="path140" />
    </clipPath>
    <linearGradient
       x1="0"
       y1="0"
       x2="1"
       y2="0"
       gradientUnits="userSpaceOnUse"
       gradientTransform="matrix(218.242,218.242,-218.242,218.242,357.697,1193.54)"
       spreadMethod="pad"
       id="linearGradient152">
      <stop
         style="stop-opacity:1;stop-color:#fcd190"
         offset="0"
         id="stop144" />
      <stop
         style="stop-opacity:1;stop-color:#fcd190"
         offset="0.06"
         id="stop146" />
      <stop
         style="stop-opacity:1;stop-color:#b7a785"
         offset="0.5"
         id="stop148" />
      <stop
         style="stop-opacity:1;stop-color:#fcd190"
         offset="1"
         id="stop150" />
    </linearGradient>
    <clipPath
       clipPathUnits="userSpaceOnUse"
       id="clipPath162">
      <path
         d="m 728.402,1557.13 -46.617,76.29 h -35.219 l 6.102,-18.02 v -94.17 h 28.355 v 71.54 l 44.754,-71.54 h 30.473 v 112.4 h -28.016 v -76.29 z m -123.879,-18.35 h -43.269 v 94.85 H 526.84 l 6.441,-18.1 v -79.89 c 0,-7.94 6.426,-14.38 14.367,-14.41 h 84.762 v 112.4 h -34.285 l 6.398,-18.1 z m -119.597,76.75 h -42.383 v -37.63 h 42.383 z m 12.332,18.1 c 8.66,0 15.68,-7.02 15.68,-15.68 V 1574 c -0.016,-1.54 -0.188,-3.07 -0.508,-4.58 -0.758,-3.57 -3.098,-6.61 -6.356,-8.26 -2.351,-1.12 -4.941,-1.65 -7.547,-1.53 h -56.152 v -38.4 H 414.02 v 94.13 l -6.442,18.27 h 89.68 m 437.672,-17.59 -14.922,-46.07 h 29.668 z m 21.867,17.59 36.066,-112.27 h -27.25 l -9.539,29.41 h -42.379 l -9.535,-29.41 h -27.254 l 32.465,94.68 -0.254,17.59 z m 123.073,-62.77 h -42.38 v -31.27 h 42.38 z m -42.38,18.1 h 41.87 v 26.4 h -41.87 z m 56.41,-9.5 c 0,0 14.45,-3.64 14.45,-14.78 v -30.65 c 0,-7.02 -5.69,-12.71 -12.71,-12.71 h -86.46 l 0.3,94.13 -6.7,18.18 H 1095 c 7.02,0 12.72,-5.7 12.72,-12.72 v -26.53 c 0,-10.51 -14.12,-14.7 -14.12,-14.7 m -258.694,35.72 -6.609,18.23 h 34.754 v -112.4 H 789.18 c -8.059,0.03 -14.578,6.57 -14.578,14.63 v 26.95 h 28.351 v -23.44 h 31.953 z"
         id="path160" />
    </clipPath>
    <linearGradient
       x1="0"
       y1="0"
       x2="1"
       y2="0"
       gradientUnits="userSpaceOnUse"
       gradientTransform="matrix(700.772,0,0,700.772,407.579,1577.43)"
       spreadMethod="pad"
       id="linearGradient176">
      <stop
         style="stop-opacity:1;stop-color:#fcd190"
         offset="0"
         id="stop164" />
      <stop
         style="stop-opacity:1;stop-color:#b7a785"
         offset="0.13"
         id="stop166" />
      <stop
         style="stop-opacity:1;stop-color:#fde1b1"
         offset="0.25"
         id="stop168" />
      <stop
         style="stop-opacity:1;stop-color:#b68a67"
         offset="0.5"
         id="stop170" />
      <stop
         style="stop-opacity:1;stop-color:#fde1b1"
         offset="0.64"
         id="stop172" />
      <stop
         style="stop-opacity:1;stop-color:#b68a67"
         offset="1"
         id="stop174" />
    </linearGradient>
    <clipPath
       clipPathUnits="userSpaceOnUse"
       id="clipPath188">
      <path
         d="m 917.34,552.699 -1.906,-12.508 66.242,99.731 c 0,0 -52.809,24.707 -54.375,69.797 -1.571,45.09 39.625,59.082 59.332,58.953 -44.246,-22.973 -28.313,-59.332 -28.313,-59.332 0,0 9.578,45.73 68.36,26.781 -13.26,-2.711 -35.981,-8.473 -39.836,-31.871 -2.035,-12.711 8.773,-25.852 32.716,-24.199 134.52,9.328 168.51,-14.922 168.51,-14.922 0,0 25.17,78.492 -56.49,108.422 29.34,5.578 59.71,0.418 85.56,-14.539 l 15.47,-9.032 -12.03,13.348 c -33.23,37.043 -92.99,82.012 -189.02,85.953 h -3.44 v -0.59 h -0.84 c -22.84,-11.14 -50.096,-7.82 -69.592,8.469 -28.778,-15.211 -67.133,7.211 -67.133,7.211 0,0 7.203,-19.961 40.347,-21.531 -22.843,-11.141 -50.129,-7.61 -69.379,8.98 -15.621,13.961 -23.699,34.489 -21.785,55.352 36.746,-28.313 69.336,-13.262 75.567,-11.82 44.289,10.207 59.925,-25.981 60.011,-26.114 0.086,-0.129 43.274,-18.429 69.124,19.5 l -0.25,0.211 h 0.42 l -4.79,4.242 c -1.14,0.969 -28.48,24.278 -76.625,41.149 -44.289,15.555 -115.105,28.098 -201.054,-0.301 h -0.297 c -10.297,-2.75 -64.336,-15.418 -117.481,6.699 l -11.781,4.918 8.477,-9.406 c 43.863,-47.852 97.05,-43.738 124.132,-37.34 -20.894,-33.91 -80.738,-48.738 -80.738,-48.738 19.899,-13.75 45.004,-17.613 68.11,-10.473 -43.102,-35.301 -48.188,-81.16 -33.313,-111.758 12.832,-25.992 38.332,-43.371 67.219,-45.812 0,0 -20.09,52.98 10.254,101.371 -3.051,-20.59 -4.239,-60.52 24.625,-89 54.035,-53.012 46.406,-112.012 44.289,-123.281 l -1.824,-9.957 6.695,7.578 c 18.222,20.558 21.445,57.691 21.531,74.039 10.68,-11.098 32.336,-41.738 25.301,-90.18 z M 676.402,864.578 c 0,0 -68.574,53.102 -113.793,31.024 -14.496,-7.293 -28.097,-18.864 -26.574,-44.961 1.695,-28.231 35.137,-61.711 97.098,-46.11 0,0 -57.43,-4.242 -70.481,34.918 -8.816,26.61 18.438,37.289 18.438,37.289 8.551,-25.148 31.926,-42.25 58.484,-42.797 8.067,-0.269 16.071,1.508 23.266,5.168 -4.602,9.981 -11.953,18.45 -21.192,24.411 7.883,1.23 23.95,3.261 34.754,1.058 z m -157.617,-97.726 6.824,8.48 c 0,0 -65.476,-21.754 -124.218,-92.992 20.257,57.379 83.027,120.191 83.027,120.191 -40.344,-14.23 -77.258,-36.75 -108.371,-66.109 31.488,73.949 154.016,155.539 154.016,155.539 0,0 -117.61,-33.531 -188.301,-117.949 C 257,672.852 259.457,579.48 259.457,579.48 c 0,0 24.496,51.579 62.047,83.149 C 286.156,581.73 304.977,492.43 312.051,465.602 l 3.39,-13.051 2.079,13.347 c 7.839,50.313 26.148,117.141 50.859,162.364 C 359.18,570.289 357.23,441.449 388,385.719 l 8.477,-15.688 -3.434,17.59 c -0.34,1.738 -32.379,178 125.742,379.231 z M 748.324,574.898 c 0,0 -49.289,-68.609 -57.511,-146.289 -17.715,72.039 14.453,179.731 14.453,179.731 0,0 -60.735,-58.988 -71.836,-137.231 -13.903,119.051 42.379,212.801 42.379,212.801 0,0 -86.797,-66.672 -94.211,-230.469 -3.032,-81.371 16.382,-162.011 56.113,-233.101 0,0 -8.141,79.601 -4.832,124.941 33.902,-125.359 119.43,-167.781 119.43,-167.781 0,0 -40.985,51.961 -52.004,162.398 14.496,-42.589 58.91,-99.886 103.75,-123.16 -111.207,153.293 -55.731,358.16 -55.731,358.16 z M 602.32,668.859 C 560.461,639.309 526.898,599.5 504.844,553.25 499.336,613.852 543.793,715.82 543.793,715.82 373.25,510.531 467.762,316.852 467.762,316.852 c 0,0 2.711,73.437 18.011,124.886 10.211,-108.527 80.907,-186.468 80.907,-186.468 0,0 -90.571,197.66 35.64,413.589 z m 624.15,52.34 c -1.06,-1.219 -25.81,-30.039 -33.65,-52.969 l -1.15,-3.429 3.56,-0.301 h 0.72 c 3.52,0 19.41,1.48 27.64,27.379 l 11.27,39.031 z M 842.75,973.5 c 0,0 82.559,3.18 133.414,-28.609 v 0 c 0,0 -58.359,106.379 -148.883,132.189 v 0 c 0,0 47.125,-33.9 58.739,-68.32 -46.075,42.96 -104.2,70.78 -166.559,79.72 -96.629,13.65 -169.906,-12.71 -169.906,-12.71 0,0 86.715,0.76 165.289,-26.24 89.551,-30.77 127.906,-75.905 127.906,-75.905 z M 948.277,498.832 c -2.797,-47.891 23.606,-74 23.606,-74 0,0 -5.594,71.457 35.767,151.469 -22.119,0 -56.576,-29.66 -59.373,-77.469 z M 616.266,947.395 v 0 c -17.661,11.293 -36.922,19.863 -57.133,25.425 117.269,25.938 259.121,-9.957 259.121,-9.957 0,0 -96.418,70.137 -219.621,70.137 -174.82,0 -263.231,-104.34 -263.231,-104.34 0,0 44.332,32.844 157.828,37.637 C 296.285,904.672 257,727.648 257,727.648 c 0,0 112.773,209.832 359.266,219.747 z M 1109.37,422.25 c -13.39,-34.879 -50.86,-48.398 -50.86,-48.398 l -1.52,-7.422 c -15.6,5.851 -32.69,6.371 -48.62,1.492 17.76,25 13.1,65.18 13.1,65.18 -14.24,-29.532 -38.802,-52.821 -69.04,-65.481 22.527,-16.762 49.86,-25.812 77.94,-25.812 24.07,0.382 43.19,6.363 56.96,18.941 22.59,20.641 24.2,53.32 22.04,61.5 z m 61.54,231.609 c -58.62,23.442 -120.75,7.93 -120.75,7.93 -6.14,-40.309 -16.95,-93.449 -16.95,-93.449 0,0 42.68,41.531 55.52,86.07 l 6.4,-15.172 c 0,0 26.15,15.981 52.04,-2.418 l 10.34,8.18 c 0,-1.441 2.38,-77.68 2.38,-77.68 0,0 61.58,66.11 11.02,86.539 z m -88.33,-310.531 c 0,0 -5.25,-22.969 -43.52,-31.648 7.52,-4.2 14.49,-9.309 20.76,-15.219 0,0 -18.43,-25.981 -63.566,-26.02 -59.332,0 -96.418,51.7 -96.418,51.7 0,0 26.953,-13.129 53.062,-11.141 -101.714,62.852 -45.433,181.18 -45.433,181.18 0,0 -7.289,-81.039 25.43,-121.758 46.109,-56.75 131.465,-35.774 149.685,-27.094 z"
         id="path186" />
    </clipPath>
    <linearGradient
       x1="0"
       y1="0"
       x2="1"
       y2="0"
       gradientUnits="userSpaceOnUse"
       gradientTransform="matrix(977.86,0,0,977.86,256.999,634.95)"
       spreadMethod="pad"
       id="linearGradient202">
      <stop
         style="stop-opacity:1;stop-color:#fcd190"
         offset="0"
         id="stop190" />
      <stop
         style="stop-opacity:1;stop-color:#b7a785"
         offset="0.13"
         id="stop192" />
      <stop
         style="stop-opacity:1;stop-color:#fde1b1"
         offset="0.25"
         id="stop194" />
      <stop
         style="stop-opacity:1;stop-color:#b68a67"
         offset="0.5"
         id="stop196" />
      <stop
         style="stop-opacity:1;stop-color:#fde1b1"
         offset="0.64"
         id="stop198" />
      <stop
         style="stop-opacity:1;stop-color:#b68a67"
         offset="1"
         id="stop200" />
    </linearGradient>
  </defs>
  <sodipodi:namedview
     id="namedview4"
     pagecolor="#ffffff"
     bordercolor="#000000"
     borderopacity="0.25"
     inkscape:showpageshadow="2"
     inkscape:pageopacity="0.0"
     inkscape:pagecheckerboard="0"
     inkscape:deskcolor="#d1d1d1" />
  <g
     id="g8"
     inkscape:groupmode="layer"
     inkscape:label="ink_ext_XXXXXX"
     transform="matrix(1.3333333,0,0,-1.3333333,0,259.06667)">
    <g
       id="g10"
       transform="scale(0.1)">
      <g
         id="g12">
        <g
           id="g14"
           clip-path="url(#clipPath18)">
          <g
             id="g20"
             clip-path="url(#clipPath24)">
            <path
               d="m 756,0 v 1 h -5 v 1 h -5 v 1 h -3 v 1 h -4 v 1 h -4 v 1 h -3 v 1 h -3 v 1 h -4 v 1 h -3 v 1 h -3 v 1 h -3 v 1 h -3 v 1 h -3 v 1 h -3 v 1 h -3 v 1 h -2 v 1 h -3 v 1 h -3 v 1 h -3 v 1 h -2 v 1 h -3 v 1 h -3 v 1 h -2 v 1 h -3 v 1 h -3 v 1 h -2 v 1 h -3 v 1 h -2 v 1 h -3 v 1 h -2 v 1 h -3 v 1 h -2 v 1 h -3 v 1 h -2 v 1 h -3 v 1 h -2 v 1 h -2 v 1 h -3 v 1 h -2 v 1 h -2 v 1 h -2 v 1 h -3 v 1 h -2 v 1 h -2 v 1 h -3 v 1 h -2 v 1 h -2 v 1 h -2 v 1 h -3 v 1 h -2 v 1 h -2 v 1 h -2 v 1 h -2 v 1 h -3 v 1 h -2 v 1 h -2 v 1 h -2 v 1 h -2 v 1 h -2 v 1 h -2 v 1 h -3 v 1 h -2 v 1 h -2 v 1 h -2 v 1 h -2 v 1 h -2 v 1 h -2 v 1 h -2 v 1 h -2 v 1 h -2 v 1 h -2 v 1 h -2 v 1 h -2 v 1 h -2 v 1 h -2 v 1 h -2 v 1 h -2 v 1 h -2 v 1 h -2 v 1 h -2 v 1 h -2 v 1 h -2 v 1 h -2 v 1 h -2 v 1 h -1 v 1 h -2 v 1 h -2 v 1 h -2 v 1 h -2 v 1 h -2 v 1 h -2 v 1 h -2 v 1 h -1 v 1 h -2 v 1 h -2 v 1 h -2 v 1 h -2 v 1 h -2 v 1 h -1 v 1 h -2 v 1 h -2 v 1 h -2 v 1 h -2 v 1 h -2 v 1 h -1 v 1 h -2 v 1 h -2 v 1 h -1 v 1 h -2 v 1 h -2 v 1 h -2 v 1 h -1 v 1 h -2 v 1 h -2 v 1 h -2 v 1 h -1 v 1 h -2 v 1 h -2 v 1 h -1 v 1 h -2 v 1 h -2 v 1 h -2 v 1 h -1 v 1 h -2 v 1 h -2 v 1 h -1 v 1 h -2 v 1 h -1 v 1 h -2 v 1 h -2 v 1 h -1 v 1 h -2 v 1 h -2 v 1 h -1 v 1 h -2 v 1 h -1 v 1 h -2 v 1 h -2 v 1 h -1 v 1 h -2 v 1 h -2 v 1 h -1 v 1 h -2 v 1 h -1 v 1 h -2 v 1 h -1 v 1 h -2 v 1 h -1 v 1 h -2 v 1 h -1 v 1 h -2 v 1 h -2 v 1 h -1 v 1 h -2 v 1 h -1 v 1 h -2 v 1 h -1 v 1 h -2 v 1 h -1 v 1 h -2 v 1 h -1 v 1 h -2 v 1 h -1 v 1 h -2 v 1 h -1 v 1 h -2 v 1 h -1 v 1 h -2 v 1 h -1 v 1 h -1 v 1 h -2 v 1 h -1 v 1 h -2 v 1 h -1 v 1 h -2 v 1 h -1 v 1 h -1 v 1 h -2 v 1 h -1 v 1 h -2 v 1 h -1 v 1 h -2 v 1 h -1 v 1 h -1 v 1 h -2 v 1 h -1 v 1 h -2 v 1 h -1 v 1 h -2 v 1 h -1 v 1 h -1 v 1 h -2 v 1 h -1 v 1 h -1 v 1 h -2 v 1 h -1 v 1 h -1 v 1 h -2 v 1 h -1 v 1 h -1 v 1 h -2 v 1 h -1 v 1 h -1 v 1 h -2 v 1 h -1 v 1 h -2 v 1 h -1 v 1 h -1 v 1 h -1 v 1 h -2 v 1 h -1 v 1 h -1 v 1 h -2 v 1 h -1 v 1 h -1 v 1 h -1 v 1 h -2 v 1 h -1 v 1 h -1 v 1 h -2 v 1 h -1 v 1 h -1 v 1 h -1 v 1 h -1 v 1 h -2 v 1 h -1 v 1 h -1 v 1 h -1 v 1 h -2 v 1 h -1 v 1 h -1 v 1 h -1 v 1 h -1 v 1 h -2 v 1 h -1 v 1 h -1 v 1 h -1 v 1 h -2 v 1 h -1 v 1 h -1 v 1 h -1 v 1 h -2 v 1 h -1 v 1 h -1 v 1 h -1 v 1 h -1 v 1 h -1 v 1 h -1 v 1 h -2 v 1 h -1 v 1 h -1 v 1 h -1 v 1 h -1 v 1 h -1 v 1 h -1 v 1 h -2 v 1 h -1 v 1 h -1 v 1 h -1 v 1 h -1 v 1 h -1 v 1 h -1 v 1 h -2 v 1 h -1 v 1 h -1 v 1 h -1 v 1 h -1 v 1 h -1 v 1 h -1 v 1 h -2 v 1 h -1 v 1 h -1 v 1 h -1 v 1 h -1 v 1 h -1 v 1 h -1 v 1 h -1 v 1 h -1 v 1 h -1 v 1 h -1 v 1 h -1 v 1 h -1 v 1 h -1 v 1 h -1 v 1 h -2 v 1 h -1 v 1 h -1 v 1 h -1 v 1 h -1 v 1 h -1 v 1 h -1 v 1 h -1 v 1 h -1 v 1 h -1 v 1 h -1 v 1 h -1 v 1 h -1 v 1 h -1 v 1 h -1 v 1 h -1 v 1 h -1 v 1 h -1 v 1 h -1 v 1 h -1 v 1 h -1 v 1 h -1 v 1 h -1 v 1 h -1 v 1 h -1 v 1 h -1 v 1 h -1 v 1 h -1 v 1 h -1 v 1 h -1 v 1 h -1 v 1 h -1 v 1 h -1 v 1 h -1 v 1 h -1 v 1 h -1 v 1 h -1 v 1 h -1 v 1 h -1 v 1 h -1 v 1 h -1 v 1 h -1 v 1 h -1 v 1 h -1 v 1 h -1 v 2 h -1 v 1 h -1 v 1 h -1 v 1 h -1 v 1 h -1 v 1 h -1 v 1 h -1 v 1 h -1 v 1 h -1 v 1 h -1 v 1 h -1 v 1 h -1 v 2 h -1 v 1 h -1 v 1 h -1 v 1 h -1 v 1 h -1 v 1 h -1 v 1 h -1 v 2 h -1 v 1 h -1 v 1 h -1 v 1 h -1 v 1 h -1 v 1 h -1 v 1 h -1 v 1 h -1 v 2 h -1 v 1 h -1 v 1 h -1 v 1 h -1 v 1 h -1 v 1 h -1 v 1 h -1 v 2 h -1 v 1 h -1 v 1 h -1 v 1 h -1 v 1 h -1 v 2 h -1 v 1 h -1 v 1 h -1 v 1 h -1 v 2 h -1 v 1 h -1 v 1 h -1 v 1 h -1 v 2 h -1 v 1 h -1 v 1 h -1 v 1 h -1 v 2 h -1 v 1 h -1 v 1 h -1 v 2 h -1 v 1 h -1 v 1 h -1 v 1 h -1 v 2 h -1 v 1 h -1 v 1 h -1 v 1 h -1 v 2 h -1 v 1 h -1 v 1 h -1 v 2 h -1 v 1 h -1 v 1 h -1 v 2 h -1 v 1 h -1 v 2 h -1 v 1 h -1 v 1 h -1 v 2 h -1 v 1 h -1 v 2 h -1 v 1 h -1 v 1 h -1 v 2 h -1 v 1 h -1 v 1 h -1 v 2 h -1 v 1 h -1 v 2 h -1 v 1 h -1 v 1 h -1 v 2 h -1 v 1 h -1 v 2 h -1 v 1 h -1 v 2 h -1 v 1 h -1 v 2 h -1 v 1 h -1 v 2 h -1 v 1 h -1 v 2 h -1 v 1 h -1 v 2 h -1 v 1 h -1 v 2 h -1 v 1 h -1 v 2 h -1 v 1 h -1 v 2 h -1 v 1 h -1 v 2 h -1 v 2 h -1 v 1 h -1 v 2 h -1 v 2 h -1 v 1 h -1 v 2 h -1 v 2 h -1 v 1 h -1 v 2 h -1 v 1 h -1 v 2 h -1 v 2 h -1 v 2 h -1 v 2 h -1 v 1 h -1 v 2 h -1 v 2 h -1 v 2 h -1 v 2 h -1 v 1 h -1 v 2 h -1 v 2 h -1 v 2 h -1 v 2 h -1 v 1 h -1 v 2 h -1 v 2 h -1 v 2 h -1 v 2 h -1 v 2 h -1 v 2 h -1 v 2 h -1 v 2 h -1 v 2 h -1 v 2 h -1 v 2 h -1 v 2 h -1 v 2 h -1 v 2 h -1 v 2 h -1 v 3 h -1 v 2 h -1 v 2 h -1 v 2 h -1 v 2 h -1 v 2 h -1 v 2 h -1 v 2 h -1 v 2 h -1 v 2 h -1 v 2 h -1 v 3 h -1 v 2 h -1 v 3 h -1 v 2 h -1 v 3 h -1 v 2 h -1 v 3 h -1 v 2 h -1 v 3 h -1 v 2 h -1 v 3 h -1 v 2 h -1 v 3 h -1 v 2 h -1 v 3 h -1 v 2 h -1 v 3 h -1 v 2 h -1 v 3 h -1 v 3 h -1 v 3 h -1 v 3 h -1 v 3 h -1 v 3 h -1 v 3 h -1 v 3 h -1 v 4 h -1 v 3 h -1 v 3 h -1 v 3 h -1 v 3 h -1 v 3 h -1 v 3 h -1 v 3 h -1 v 4 h -1 v 4 h -1 v 5 h -1 v 4 h -1 v 4 h -1 v 4 h -1 v 4 h -1 v 4 h -1 v 4 h -1 v 4 h -1 v 4 h -1 v 4 h -1 v 6 h -1 v 6 h -1 v 6 h -1 v 5 h -1 v 6 H 9 v 6 H 8 v 6 H 7 v 5 H 6 v 9 H 5 v 10 H 4 v 10 H 3 v 9 H 2 v 10 H 1 v 19 H 0 v 992 h 3 v -1 h 3 v -1 h 3 v -1 h 3 v -1 h 3 v -1 h 3 v -1 h 3 v -1 h 3 v -1 h 3 v -1 h 3 v -1 h 3 v -1 h 3 v -1 h 3 v -1 h 3 v -1 h 3 v -1 h 4 v -1 h 3 v -1 h 4 v -1 h 3 v -1 h 4 v -1 h 4 v -1 h 4 v -1 h 4 v -1 h 5 v -1 h 4 v -1 h 4 v -1 h 4 v -1 h 4 v -1 h 4 v -1 h 4 v -1 h 5 v -1 h 5 v -1 h 6 v -1 h 5 v -1 h 6 v -1 h 5 v -1 h 6 v -1 h 5 v -1 h 6 v -1 h 5 v -1 h 6 v -1 h 5 v -1 h 7 v -1 h 9 v -1 h 9 v -1 h 10 v -1 h 9 v -1 h 9 v -1 h 9 v -1 h 12 v -1 h 20 v -1 h 20 v -1 h 41 v 1 h 21 v 1 h 19 v 1 h 9 v 1 h 9 v 1 h 9 v 1 h 9 v 1 h 9 v 1 h 9 v 1 h 6 v 1 h 5 v 1 h 5 v 1 h 5 v 1 h 5 v 1 h 6 v 1 h 5 v 1 h 5 v 1 h 5 v 1 h 6 v 1 h 4 v 1 h 4 v 1 h 3 v 1 h 4 v 1 h 4 v 1 h 4 v 1 h 4 v 1 h 3 v 1 h 4 v 1 h 4 v 1 h 3 v 1 h 4 v 1 h 3 v 1 h 3 v 1 h 3 v 1 h 3 v 1 h 3 v 1 h 3 v 1 h 2 v 1 h 3 v 1 h 3 v 1 h 3 v 1 h 2 v 1 h 3 v 1 h 3 v 1 h 2 v 1 h 3 v 1 h 2 v 1 h 2 v 1 h 3 v 1 h 2 v 1 h 3 v 1 h 2 v 1 h 2 v 1 h 3 v 1 h 2 v 1 h 2 v 1 h 3 v 1 h 2 v 1 h 2 v 1 h 2 v 1 h 2 v 1 h 2 v 1 h 2 v 1 h 2 v 1 h 2 v 1 h 2 v 1 h 2 v 1 h 2 v 1 h 2 v 1 h 2 v 1 h 2 v 1 h 2 v 1 h 1 v 1 h 2 v 1 h 2 v 1 h 2 v 1 h 1 v 1 h 2 v 1 h 2 v 1 h 2 v 1 h 1 v 1 h 2 v 1 h 2 v 1 h 2 v 1 h 1 v 1 h 2 v 1 h 2 v 1 h 1 v 1 h 2 v 1 h 1 v 1 h 2 v 1 h 1 v 1 h 2 v 1 h 1 v 1 h 2 v 1 h 1 v 1 h 2 v 1 h 2 v 1 h 1 v 1 h 2 v 1 h 1 v 1 h 2 v 1 h 1 v 1 h 2 v 1 h 1 v 1 h 1 v 1 h 2 v 1 h 1 v 1 h 1 v 1 h 2 v 1 h 1 v 1 h 1 v 1 h 2 v 1 h 1 v 1 h 1 v 1 h 2 v 1 h 1 v 1 h 2 v 1 h 1 v 1 h 1 v 1 h 2 v 1 h 1 v 1 h 1 v 1 h 1 v 1 h 1 v 1 h 2 v 1 h 1 v 1 h 1 v 1 h 1 v 1 h 1 v 1 h 2 v 1 h 1 v 1 h 1 v 1 h 1 v 1 h 1 v 1 h 2 v 1 h 1 v 1 h 1 v 1 h 1 v 1 h 1 v 1 h 2 v 1 h 1 v 1 h 1 v 1 h 1 v 1 h 1 v 1 h 1 v 1 h 1 v 1 h 1 v 1 h 1 v 1 h 1 v 1 h 2 v 1 h 1 v 1 h 1 v 1 h 1 v 1 h 1 v 1 h 1 v 1 h 1 v 1 h 1 v 1 h 1 v 1 h 1 v 1 h 1 v 1 h 1 v 1 h 1 v 1 h 1 v 1 h 1 v 1 h 1 v 1 h 1 v 1 h 1 v 1 h 1 v 1 h 1 v 1 h 1 v 1 h 1 v 1 h 1 v 1 h 1 v 1 h 1 v 1 h 1 v 1 h 1 v 1 h 1 v 1 h 1 v 1 h 1 v 1 h 1 v 1 h 1 v 1 h 1 v 1 h 1 v 1 h 3 v -1 h 1 v -1 h 1 v -1 h 1 v -1 h 1 v -1 h 1 v -1 h 1 v -1 h 1 v -1 h 1 v -1 h 1 v -1 h 1 v -1 h 1 v -1 h 1 v -1 h 1 v -1 h 1 v -1 h 1 v -1 h 1 v -1 h 1 v -1 h 1 v -1 h 1 v -1 h 1 v -1 h 1 v -1 h 1 v -1 h 1 v -1 h 1 v -1 h 1 v -1 h 1 v -1 h 1 v -1 h 1 v -1 h 1 v -1 h 1 v -1 h 1 v -1 h 1 v -1 h 2 v -1 h 1 v -1 h 1 v -1 h 1 v -1 h 1 v -1 h 1 v -1 h 1 v -1 h 1 v -1 h 1 v -1 h 1 v -1 h 1 v -1 h 2 v -1 h 1 v -1 h 1 v -1 h 1 v -1 h 1 v -1 h 2 v -1 h 1 v -1 h 1 v -1 h 1 v -1 h 1 v -1 h 2 v -1 h 1 v -1 h 1 v -1 h 1 v -1 h 1 v -1 h 2 v -1 h 1 v -1 h 1 v -1 h 1 v -1 h 1 v -1 h 2 v -1 h 1 v -1 h 1 v -1 h 2 v -1 h 1 v -1 h 1 v -1 h 2 v -1 h 1 v -1 h 2 v -1 h 1 v -1 h 1 v -1 h 2 v -1 h 1 v -1 h 1 v -1 h 2 v -1 h 1 v -1 h 1 v -1 h 2 v -1 h 1 v -1 h 2 v -1 h 1 v -1 h 2 v -1 h 1 v -1 h 2 v -1 h 1 v -1 h 2 v -1 h 1 v -1 h 2 v -1 h 1 v -1 h 2 v -1 h 2 v -1 h 1 v -1 h 2 v -1 h 1 v -1 h 2 v -1 h 1 v -1 h 2 v -1 h 2 v -1 h 2 v -1 h 1 v -1 h 2 v -1 h 2 v -1 h 2 v -1 h 1 v -1 h 2 v -1 h 2 v -1 h 1 v -1 h 2 v -1 h 2 v -1 h 2 v -1 h 2 v -1 h 2 v -1 h 2 v -1 h 2 v -1 h 2 v -1 h 2 v -1 h 2 v -1 h 2 v -1 h 2 v -1 h 2 v -1 h 2 v -1 h 2 v -1 h 2 v -1 h 2 v -1 h 2 v -1 h 2 v -1 h 2 v -1 h 3 v -1 h 2 v -1 h 2 v -1 h 3 v -1 h 2 v -1 h 3 v -1 h 2 v -1 h 2 v -1 h 3 v -1 h 2 v -1 h 3 v -1 h 2 v -1 h 3 v -1 h 3 v -1 h 2 v -1 h 3 v -1 h 3 v -1 h 3 v -1 h 3 v -1 h 3 v -1 h 3 v -1 h 3 v -1 h 3 v -1 h 3 v -1 h 3 v -1 h 4 v -1 h 3 v -1 h 4 v -1 h 4 v -1 h 4 v -1 h 3 v -1 h 4 v -1 h 4 v -1 h 3 v -1 h 4 v -1 h 5 v -1 h 5 v -1 h 6 v -1 h 5 v -1 h 5 v -1 h 5 v -1 h 5 v -1 h 5 v -1 h 6 v -1 h 5 v -1 h 7 v -1 h 9 v -1 h 9 v -1 h 9 v -1 h 9 v -1 h 9 v -1 h 12 v -1 h 21 v -1 h 62 v 1 h 20 v 1 h 17 v 1 h 9 v 1 h 9 v 1 h 9 v 1 h 9 v 1 h 8 v 1 h 9 v 1 h 9 v 1 h 7 v 1 h 5 v 1 h 5 v 1 h 6 v 1 h 5 v 1 h 5 v 1 h 5 v 1 h 6 v 1 h 5 v 1 h 5 v 1 h 6 v 1 h 5 v 1 h 5 v 1 h 4 v 1 h 4 v 1 h 4 v 1 h 4 v 1 h 4 v 1 h 4 v 1 h 4 v 1 h 4 v 1 h 4 v 1 h 4 v 1 h 3 v 1 h 4 v 1 h 4 v 1 h 3 v 1 h 3 v 1 h 4 v 1 h 3 v 1 h 3 v 1 h 3 v 1 h 3 v 1 h 2 v 1 h 3 v 1 h 3 v 1 h 3 v 1 h 3 v 1 h 3 v 1 h 3 v 1 h 3 v 1 h 2 v 1 h 3 v 1 h 3 v 1 h 2 V 813 h -1 v -15 h -1 v -10 h -1 v -10 h -1 v -10 h -1 v -9 h -1 v -8 h -1 v -6 h -1 v -6 h -1 v -5 h -1 v -6 h -1 v -6 h -1 v -6 h -1 v -6 h -1 v -5 h -1 v -4 h -1 v -4 h -1 v -5 h -1 v -4 h -1 v -4 h -1 v -4 h -1 v -4 h -1 v -4 h -1 v -4 h -1 v -4 h -1 v -4 h -1 v -4 h -1 v -3 h -1 v -3 h -1 v -4 h -1 v -3 h -1 v -3 h -1 v -3 h -1 v -3 h -1 v -3 h -1 v -3 h -1 v -3 h -1 v -4 h -1 v -3 h -1 v -3 h -1 v -3 h -1 v -3 h -1 v -3 h -1 v -2 h -1 v -3 h -1 v -2 h -1 v -3 h -1 v -2 h -1 v -3 h -1 v -2 h -1 v -3 h -1 v -2 h -1 v -3 h -1 v -2 h -1 v -3 h -1 v -2 h -1 v -3 h -1 v -2 h -1 v -3 h -1 v -2 h -1 v -3 h -1 v -2 h -1 v -2 h -1 v -2 h -1 v -2 h -1 v -2 h -1 v -2 h -1 v -2 h -1 v -2 h -1 v -2 h -1 v -2 h -1 v -3 h -1 v -2 h -1 v -2 h -1 v -2 h -1 v -2 h -1 v -2 h -1 v -2 h -1 v -2 h -1 v -2 h -1 v -2 h -1 v -2 h -1 v -2 h -1 v -2 h -1 v -2 h -1 v -2 h -1 v -1 h -1 v -2 h -1 v -2 h -1 v -2 h -1 v -2 h -1 v -1 h -1 v -2 h -1 v -2 h -1 v -2 h -1 v -2 h -1 v -2 h -1 v -1 h -1 v -2 h -1 v -2 h -1 v -2 h -1 v -1 h -1 v -2 h -1 v -1 h -1 v -2 h -1 v -2 h -1 v -1 h -1 v -2 h -1 v -2 h -1 v -1 h -1 v -2 h -1 v -2 h -1 v -1 h -1 v -2 h -1 v -1 h -1 v -2 h -1 v -1 h -1 v -2 h -1 v -1 h -1 v -2 h -1 v -1 h -1 v -2 h -1 v -1 h -1 v -2 h -1 v -2 h -1 v -1 h -1 v -2 h -1 v -1 h -1 v -2 h -1 v -1 h -1 v -1 h -1 v -2 h -1 v -1 h -1 v -2 h -1 v -1 h -1 v -1 h -1 v -2 h -1 v -1 h -1 v -2 h -1 v -1 h -1 v -1 h -1 v -2 h -1 v -1 h -1 v -2 h -1 v -1 h -1 v -1 h -1 v -2 h -1 v -1 h -1 v -2 h -1 v -1 h -1 v -1 h -1 v -2 h -1 v -1 h -1 v -2 h -1 v -1 h -1 v -1 h -1 v -1 h -1 v -2 h -1 v -1 h -1 v -1 h -1 v -1 h -1 v -2 h -1 v -1 h -1 v -1 h -1 v -2 h -1 v -1 h -1 v -1 h -1 v -1 h -1 v -2 h -1 v -1 h -1 v -1 h -1 v -1 h -1 v -2 h -1 v -1 h -1 v -1 h -1 v -1 h -1 v -2 h -1 v -1 h -1 v -1 h -1 v -2 h -1 v -1 h -1 v -1 h -1 v -1 h -1 v -1 h -1 v -1 h -1 v -1 h -1 v -2 h -1 v -1 h -1 v -1 h -1 v -1 h -1 v -1 h -1 v -1 h -1 v -1 h -1 v -2 h -1 v -1 h -1 v -1 h -1 v -1 h -1 v -1 h -1 v -1 h -1 v -2 h -1 v -1 h -1 v -1 h -1 v -1 h -1 v -1 h -1 v -1 h -1 v -1 h -1 v -2 h -1 v -1 h -1 v -1 h -1 v -1 h -1 v -1 h -1 v -1 h -1 v -1 h -1 v -1 h -1 v -1 h -1 v -1 h -1 v -1 h -1 v -1 h -1 v -1 h -1 v -1 h -1 v -2 h -1 v -1 h -1 v -1 h -1 v -1 h -1 v -1 h -1 v -1 h -1 v -1 h -1 v -1 h -1 v -1 h -1 v -1 h -1 v -1 h -1 v -1 h -1 v -1 h -1 v -1 h -1 v -1 h -1 v -1 h -1 v -1 h -1 v -1 h -1 v -1 h -1 v -1 h -1 v -1 h -1 v -1 h -1 v -1 h -1 v -1 h -1 v -1 h -1 v -1 h -1 v -1 h -1 v -1 h -1 v -1 h -1 v -1 h -1 v -1 h -1 v -1 h -1 v -1 h -1 v -1 h -1 v -1 h -1 v -1 h -1 v -1 h -1 v -1 h -1 v -1 h -1 v -1 h -1 v -1 h -1 v -1 h -1 v -1 h -1 v -1 h -1 v -1 h -2 v -1 h -1 v -1 h -1 v -1 h -1 v -1 h -1 v -1 h -1 v -1 h -1 v -1 h -1 v -1 h -1 v -1 h -1 v -1 h -1 v -1 h -1 v -1 h -2 v -1 h -1 v -1 h -1 v -1 h -1 v -1 h -1 v -1 h -1 v -1 h -1 v -1 h -1 v -1 h -2 v -1 h -1 v -1 h -1 v -1 h -1 v -1 h -1 v -1 h -1 v -1 h -1 v -1 h -1 v -1 h -2 v -1 h -1 v -1 h -1 v -1 h -1 v -1 h -1 v -1 h -1 v -1 h -1 v -1 h -2 v -1 h -1 v -1 h -1 v -1 h -1 v -1 h -1 v -1 h -1 v -1 h -2 v -1 h -1 v -1 h -1 v -1 h -1 v -1 h -1 v -1 h -2 v -1 h -1 v -1 h -1 v -1 h -1 v -1 h -2 v -1 h -1 v -1 h -1 v -1 h -1 v -1 h -1 v -1 h -2 v -1 h -1 v -1 h -1 v -1 h -1 v -1 h -1 v -1 h -2 v -1 h -1 v -1 h -1 v -1 h -1 v -1 h -2 v -1 h -1 v -1 h -1 v -1 h -2 v -1 h -1 v -1 h -1 v -1 h -1 v -1 h -2 v -1 h -1 v -1 h -1 v -1 h -2 v -1 h -1 v -1 h -1 v -1 h -2 v -1 h -1 v -1 h -1 v -1 h -2 v -1 h -1 v -1 h -1 v -1 h -2 v -1 h -1 v -1 h -1 v -1 h -2 v -1 h -1 v -1 h -1 v -1 h -2 v -1 h -1 v -1 h -1 v -1 h -2 v -1 h -1 v -1 h -2 v -1 h -1 v -1 h -1 v -1 h -2 v -1 h -1 v -1 h -2 v -1 h -1 v -1 h -1 v -1 h -2 v -1 h -1 v -1 h -2 v -1 h -1 v -1 h -2 v -1 h -1 v -1 h -1 v -1 h -2 v -1 h -1 v -1 h -2 v -1 h -1 v -1 h -2 v -1 h -1 v -1 h -1 v -1 h -2 v -1 h -1 v -1 h -2 v -1 h -1 v -1 h -2 v -1 h -1 v -1 h -2 v -1 h -1 v -1 h -2 v -1 h -1 v -1 h -2 v -1 h -2 v -1 h -1 v -1 h -2 v -1 h -1 v -1 h -2 v -1 h -1 v -1 h -2 v -1 h -1 v -1 h -2 v -1 h -1 v -1 h -2 v -1 h -1 v -1 h -2 v -1 h -2 v -1 h -1 v -1 h -2 v -1 h -1 v -1 h -2 v -1 h -2 v -1 h -1 v -1 h -2 v -1 h -1 v -1 h -2 v -1 h -2 v -1 h -1 v -1 h -2 v -1 h -2 v -1 h -1 v -1 h -2 v -1 h -1 v -1 h -2 v -1 h -2 v -1 h -1 v -1 h -2 v -1 h -2 v -1 h -2 v -1 h -1 v -1 h -2 v -1 h -2 v -1 h -1 v -1 h -2 v -1 h -2 v -1 h -2 v -1 h -1 v -1 h -2 v -1 h -2 v -1 h -2 v -1 h -1 v -1 h -2 v -1 h -2 v -1 h -1 v -1 h -2 v -1 h -2 v -1 h -2 v -1 h -2 v -1 h -2 v -1 h -1 v -1 h -2 v -1 h -2 v -1 h -2 v -1 h -2 v -1 h -2 v -1 h -1 v -1 h -2 v -1 h -2 v -1 h -2 v -1 h -2 v -1 h -2 v -1 h -2 v -1 h -2 v -1 h -1 v -1 h -2 v -1 h -2 v -1 h -2 v -1 h -2 v -1 h -2 v -1 h -2 v -1 h -2 v -1 h -2 v -1 h -2 v -1 h -2 v -1 h -2 v -1 h -2 v -1 h -2 v -1 h -2 v -1 h -2 v -1 h -2 v -1 h -2 v -1 h -2 v -1 h -2 v -1 h -2 v -1 h -2 v -1 h -2 v -1 h -2 v -1 h -3 v -1 h -2 v -1 h -2 v -1 h -2 v -1 h -2 v -1 h -2 v -1 h -2 v -1 h -3 v -1 h -2 v -1 h -2 v -1 h -2 v -1 h -2 v -1 h -3 v -1 h -2 v -1 h -2 v -1 h -2 v -1 h -3 v -1 h -2 v -1 h -2 v -1 h -2 v -1 h -3 v -1 h -2 v -1 h -2 v -1 h -3 v -1 h -2 v -1 h -2 v -1 h -3 v -1 h -2 v -1 h -3 v -1 h -2 v -1 h -3 v -1 h -2 v -1 h -3 v -1 h -2 v -1 h -3 v -1 h -2 v -1 h -3 v -1 h -3 v -1 h -2 v -1 h -3 v -1 h -2 v -1 h -3 v -1 h -3 v -1 h -3 v -1 h -2 v -1 h -3 v -1 h -3 v -1 h -3 v -1 h -3 v -1 h -3 v -1 h -3 V 9 h -3 V 8 h -3 V 7 h -3 V 6 h -4 V 5 h -3 V 4 h -4 V 3 h -3 V 2 h -4 V 1 h -5 V 0"
               style="fill:url(#linearGradient38);fill-opacity:1;fill-rule:nonzero;stroke:none"
               id="path40" />
          </g>
        </g>
      </g>
      <path
         d="M 761.633,48.5703 C 720.098,57.4688 544.133,121.719 376.98,251.07 280.012,326.09 203.008,409.75 148.121,499.719 82.1211,606.18 47.2109,728.98 47.3398,854.238 V 1746.4 c 83.5432,-22.67 169.7112,-34.24 256.2772,-34.41 183.766,0 340.574,57 455.004,164.99 115.742,-109.85 267.889,-165.54 452.459,-165.54 87.59,0.2 174.74,12.29 259.08,35.94 V 854.238 C 1470.27,729.332 1435.72,606.84 1370.35,500.398 1315.98,410.469 1239.73,326.641 1143.65,251.711 977.352,121.809 802.824,57.6016 761.633,48.5703"
         style="fill:#dd1f2d;fill-opacity:1;fill-rule:nonzero;stroke:none"
         id="path42" />
      <path
         d="M 758.496,1898.89 C 622.367,1762.8 447.672,1727.67 303.617,1727.67 c -92.176,0.01 -183.859,13.5 -272.1287,40.05 V 854.238 C 31.4883,294.379 683.523,46.5 761.633,32.6016 840.375,46.5781 1485.84,295.781 1485.84,854.238 v 914.672 c -89.01,-27.62 -181.68,-41.65 -274.88,-41.62 -142.96,0 -316.124,35.43 -452.339,171.77 z m 0.125,-43.48 c 61.809,-55.6 134.567,-97.64 213.602,-123.42 72.807,-24.15 153.167,-36.4 238.737,-36.4 82.03,0.25 163.72,10.68 243.18,31.06 V 854.238 C 1454.25,732.23 1420.5,612.59 1356.66,508.621 1303.3,420.34 1228.29,338.082 1133.78,264.211 973.535,138.93 806.555,75.7813 761.676,65.0195 716.41,75.8711 547.988,139.012 386.727,263.832 291.285,337.66 215.594,419.871 161.684,508.199 97.2539,612.121 63.1406,731.969 63.1914,854.238 v 871.612 c 78.6636,-19.49 159.3826,-29.45 240.4256,-29.67 86.246,0 167.11,12.17 240.262,36.15 79.351,25.49 152.473,67.37 214.617,122.91"
         style="fill:#ffffff;fill-opacity:1;fill-rule:nonzero;stroke:none"
         id="path44" />
      <path
         d="m 1090.04,1135.69 c -67.47,12.72 -138.372,18.65 -210.802,22.8 -3.855,0.26 -33.015,1.49 -33.015,33.31 v 272.9 h 200.927 c 26.7,0 42.38,-14.88 42.38,-31.88 v -41.91 l -70.14,3.77 c -7.84,0 -14.41,5.64 -14.49,12.08 v 18.82 h -73.873 v -229.54 c 0,0 57.684,-2.29 74.003,-5.89 v 126.08 c -2.04,0 -36.878,2.25 -36.878,2.25 l 13.821,38.15 67.007,-2.5 c 0,0 41.06,-1.66 41.06,-44.72 0,-0.04 0.04,-167.61 0,-173.72"
         style="fill:#ffffff;fill-opacity:1;fill-rule:nonzero;stroke:none"
         id="path46" />
      <g
         id="g48">
        <g
           id="g50"
           clip-path="url(#clipPath54)">
          <path
             d="m 850.844,1459.86 v -268.27 c 0,-23.56 17.883,-28.1 28.523,-28.69 58.442,-3.39 134.133,-8.9 206.103,-21.87 0,29.67 0,166.6 0,168.13 0,38.14 -35.14,40.05 -36.62,40.13 l -63.573,2.34 -10.597,-29.17 c 12.715,-0.84 28.61,-1.82 30.35,-1.82 h 4.66 v -4.62 -131.63 l -5.6,1.23 c -15.719,3.47 -72.594,5.76 -73.188,5.76 l -4.238,0.21 v 238.61 h 83.276 v -23.44 c 0,-3.81 4.71,-7.33 9.96,-7.46 l 65.48,-3.51 v 37.03 c 0,16.03 -15.77,27.26 -38.14,27.26 z m 243.776,-329.68 -5.42,1.02 c -73.03,13.6 -150.712,19.28 -210.216,22.72 -23.437,1.31 -37.379,15.47 -37.336,37.88 v 277.47 h 205.502 c 30.77,0 47.05,-18.31 47.22,-36.45 v -46.61 l -75.02,3.98 c -10.26,0.3 -18.77,7.76 -18.82,16.66 v 14.24 h -64.882 v -220.38 c 12.418,-0.56 47.34,-2.25 64.802,-4.83 v 115.95 c -8.477,0.46 -26.235,1.61 -32.591,2.03 l -6.144,0.43 16.949,47 70.356,-2.59 c 0.51,0 45.52,-2.37 45.52,-49.33 v -179.19 h 0.08"
             style="fill:url(#linearGradient64);fill-opacity:1;fill-rule:nonzero;stroke:none"
             id="path66" />
        </g>
      </g>
      <path
         d="m 802.148,1464.7 h -84.253 v -105.07 l -74.551,105.07 h -84.762 v -312.9 c 27.887,3.34 56.199,4.24 84.762,6.06 v 203.43 l 74.34,-107.06 v -92.77 c 16.273,0.47 32.589,0.68 49.035,0.68 11.992,0 23.902,0 35.808,-0.38 l -0.379,302.94"
         style="fill:#ffffff;fill-opacity:1;fill-rule:nonzero;stroke:none"
         id="path68" />
      <g
         id="g70">
        <g
           id="g72"
           clip-path="url(#clipPath76)">
          <path
             d="m 562.863,1460.25 v -303.11 c 17.547,1.9 35.473,2.88 52.809,3.85 7.586,0.43 15.215,0.85 22.883,1.36 v 213.6 l 83.535,-120.32 v -89.47 c 15.129,0.34 30.047,0.55 44.414,0.55 9.539,0 19.582,0 31.195,-0.29 v 293.44 h -75.226 l -0.215,-114.85 -81.496,114.85 z m -9.195,-313.62 v 322.64 h 91.84 l 67.597,-95.23 v 95.23 h 93.493 v -312.26 h -4.703 c -13.649,0.29 -25.008,0.42 -35.727,0.42 -15.809,0 -32.254,-0.25 -48.91,-0.68 h -4.746 l 0.211,96.04 -65.137,93.79 v -192.96 l -4.238,-0.3 c -9.157,-0.63 -18.227,-1.14 -27.297,-1.65 -18.903,-1.06 -38.438,-2.16 -57.34,-4.24 l -5.043,-0.8"
             style="fill:url(#linearGradient86);fill-opacity:1;fill-rule:nonzero;stroke:none"
             id="path88" />
        </g>
      </g>
      <path
         d="m 1369.21,1369.55 v 58.23 c 0,24.12 -18.78,36.92 -40.65,36.92 h -198.04 v -116.42 c 0,-35.48 39.16,-39.89 39.16,-39.89 0,0 91.2,-10.25 114.64,-13.39 v -149.48 c -22.17,6.32 -68.96,15.52 -68.96,15.52 0,0 0,59.33 0,63.57 -0.63,7.32 -6.08,13.32 -13.3,14.66 -21.19,3.73 -71.54,11.36 -71.54,11.36 0,0 0,-91.33 0,-122.91 81.54,-16.68 161.43,-40.65 238.69,-71.62 v 226.65 c 0,44.89 -41.45,51.75 -41.45,51.75 v 0 c 0,0 -35.64,5.98 -112.31,11.82 v 79.17 h 68.7 v -30.04 c 0,-15.47 16.1,-16.96 16.1,-16.96 l 68.96,-8.94"
         style="fill:#ffffff;fill-opacity:1;fill-rule:nonzero;stroke:none"
         id="path90" />
      <g
         id="g92">
        <g
           id="g94"
           clip-path="url(#clipPath98)">
          <path
             d="m 1135.14,1131.24 c 78.32,-16.26 155.11,-39.18 229.53,-68.53 v 220.04 c 0.92,22.89 -15.08,42.99 -37.59,47.22 l 0.72,4.24 v 0 l -0.76,-4.24 c -0.34,0 -36.03,5.97 -111.89,11.78 l -4.24,0.3 v 88.15 h 77.9 v -34.67 c 0,-11.1 11.44,-12.25 11.95,-12.29 l 63.83,-8.47 v 52.97 c 0.36,9.16 -3.5,17.99 -10.47,23.95 -7.24,5.69 -16.23,8.68 -25.43,8.47 h -193.55 v -111.8 c 0,-30.85 33.65,-35.13 35.09,-35.3 1.44,-0.17 91.46,-10.3 114.72,-13.44 l 3.99,-0.51 v -159.6 l -5.89,1.65 c -21.75,6.23 -68.11,15.34 -68.58,15.43 l -3.73,0.71 v 3.82 c 0,0 0,59.33 0,63.36 -0.66,5.14 -4.56,9.27 -9.66,10.22 -16.7,2.92 -52.47,8.47 -65.94,10.5 0,-19.24 -0.09,-84.67 0,-113.96 z m 238.69,-82.17 -6.36,2.58 c -77.01,30.83 -156.62,54.71 -237.89,71.37 l -3.64,0.76 v 3.73 c 0,31.62 0,122.91 0,122.91 v 5.34 l 5.3,-0.81 c 0.51,0 50.64,-7.67 71.62,-11.36 9.3,-1.87 16.23,-9.69 16.95,-19.15 v -59.67 c 10.43,-2.08 40.27,-8.18 59.76,-13.27 v 139.43 c -28.06,3.61 -109.68,12.72 -110.57,12.72 -14.96,1.69 -43.23,13.14 -43.23,44.46 v 121.16 h 202.62 c 11.4,0.28 22.53,-3.43 31.49,-10.47 9.08,-7.7 14.15,-19.12 13.78,-31.02 v -63.57 l -74.09,9.71 c -11.32,0.69 -20.15,10.09 -20.13,21.44 v 25.43 h -59.46 v -70.27 c 37.47,-2.92 64.55,-5.85 80.87,-7.8 14.41,-1.74 22.29,-2.71 26.57,-3.64 h 0.72 c 27.18,-4.69 46.7,-28.76 45.69,-56.33 v -233.68"
             style="fill:url(#linearGradient108);fill-opacity:1;fill-rule:nonzero;stroke:none"
             id="path110" />
        </g>
      </g>
      <path
         d="m 396.984,1128.19 -54.586,184.06 -22.21,-2.07 67.046,154.52 h -88.406 l -59.332,-125.41 v 125.41 h -93.238 v -409.11 c 30.383,13.07 61.515,24.33 93.238,33.7 v 207.66 l 15.301,2.63 50.558,-191.14 c 25.219,7.93 91.629,19.75 91.629,19.75"
         style="fill:#ffffff;fill-opacity:1;fill-rule:nonzero;stroke:none"
         id="path112" />
      <g
         id="g114">
        <g
           id="g116"
           clip-path="url(#clipPath120)">
          <path
             d="m 151.133,1459.86 v -397.49 c 27.461,11.44 55.48,21.48 83.957,30.09 v 208.56 l 23.265,3.94 50.477,-190.71 c 23.098,6.4 67.258,14.7 82.305,17.46 l -52.086,175.58 -26.196,-2.45 67.387,155.02 H 301.754 L 235.09,1318.73 v 141.13 z m -9.242,-411.39 v 420.8 h 102.437 v -109.42 l 51.578,109.42 h 98.239 l -66.625,-153.8 18.226,1.7 57.129,-192.58 -5.086,-0.93 c -0.637,0 -66.367,-11.87 -90.863,-19.41 l -4.578,-1.45 -50.731,191.78 -7.289,-1.23 v -207.41 l -3.308,-1.02 c -31.532,-9.33 -62.481,-20.52 -92.684,-33.53 l -6.445,-2.92"
             style="fill:url(#linearGradient130);fill-opacity:1;fill-rule:nonzero;stroke:none"
             id="path132" />
        </g>
      </g>
      <path
         d="m 513.828,1464.7 h -86.84 v -330.11 c 28.703,5.77 57.692,10.02 86.84,12.71 v 317.4"
         style="fill:#ffffff;fill-opacity:1;fill-rule:nonzero;stroke:none"
         id="path134" />
      <g
         id="g136">
        <g
           id="g138"
           clip-path="url(#clipPath142)">
          <path
             d="m 431.566,1459.86 v -319.84 c 11.571,2.28 40.176,7.45 77.688,11.36 v 308.48 z m -9.195,-330.99 v 340.4 h 96.078 v -326.04 l -4.238,-0.42 c -28.981,-2.72 -57.797,-6.96 -86.332,-12.71 l -5.508,-1.23"
             style="fill:url(#linearGradient152);fill-opacity:1;fill-rule:nonzero;stroke:none"
             id="path154" />
        </g>
      </g>
      <g
         id="g156">
        <g
           id="g158"
           clip-path="url(#clipPath162)">
          <path
             d="m 728.402,1557.13 -46.617,76.29 h -35.219 l 6.102,-18.02 v -94.17 h 28.355 v 71.54 l 44.754,-71.54 h 30.473 v 112.4 h -28.016 v -76.29 z m -123.879,-18.35 h -43.269 v 94.85 H 526.84 l 6.441,-18.1 v -79.89 c 0,-7.94 6.426,-14.38 14.367,-14.41 h 84.762 v 112.4 h -34.285 l 6.398,-18.1 z m -119.597,76.75 h -42.383 v -37.63 h 42.383 z m 12.332,18.1 c 8.66,0 15.68,-7.02 15.68,-15.68 V 1574 c -0.016,-1.54 -0.188,-3.07 -0.508,-4.58 -0.758,-3.57 -3.098,-6.61 -6.356,-8.26 -2.351,-1.12 -4.941,-1.65 -7.547,-1.53 h -56.152 v -38.4 H 414.02 v 94.13 l -6.442,18.27 h 89.68 m 437.672,-17.59 -14.922,-46.07 h 29.668 z m 21.867,17.59 36.066,-112.27 h -27.25 l -9.539,29.41 h -42.379 l -9.535,-29.41 h -27.254 l 32.465,94.68 -0.254,17.59 z m 123.073,-62.77 h -42.38 v -31.27 h 42.38 z m -42.38,18.1 h 41.87 v 26.4 h -41.87 z m 56.41,-9.5 c 0,0 14.45,-3.64 14.45,-14.78 v -30.65 c 0,-7.02 -5.69,-12.71 -12.71,-12.71 h -86.46 l 0.3,94.13 -6.7,18.18 H 1095 c 7.02,0 12.72,-5.7 12.72,-12.72 v -26.53 c 0,-10.51 -14.12,-14.7 -14.12,-14.7 m -258.694,35.72 -6.609,18.23 h 34.754 v -112.4 H 789.18 c -8.059,0.03 -14.578,6.57 -14.578,14.63 v 26.95 h 28.351 v -23.44 h 31.953 v 76.03"
             style="fill:url(#linearGradient176);fill-opacity:1;fill-rule:nonzero;stroke:none"
             id="path178" />
        </g>
      </g>
      <path
         d="m 758.621,1899.06 c -136.129,-136.08 -310.82,-171.22 -454.875,-171.22 -92.215,-0.06 -183.937,13.37 -272.2577,39.88 V 854.238 C 31.4883,294.379 683.523,46.5 761.633,32.6016 840.375,46.5781 1485.84,295.781 1485.84,854.238 v 914.672 c -89.01,-27.62 -181.68,-41.65 -274.88,-41.62 -142.96,0 -316.124,35.43 -452.339,171.77 z m 0,-13.22 c 62.567,-60.4 138.039,-105.79 220.723,-132.74 70.566,-23.39 148.546,-35.22 231.736,-35.22 89.82,0.35 179.15,13.19 265.44,38.14 V 854.238 C 1476.62,728.172 1441.76,604.539 1375.82,497.09 1321.02,406.48 1244.23,322.23 1147.6,246.66 978.918,114.82 801.172,50.1406 761.93,42.2188 722.219,50.1797 543.027,114.859 373.336,246.199 275.859,321.68 198.258,405.93 142.953,496.578 76.3594,603.988 41.1289,727.871 41.2383,854.238 V 1754.96 C 126.781,1731.01 215.164,1718.71 304,1718.39 c 83.871,0 162.402,11.82 233.352,35.05 82.878,26.7 158.566,71.98 221.269,132.4"
         style="fill:#4960b6;fill-opacity:1;fill-rule:nonzero;stroke:none"
         id="path180" />
      <g
         id="g182">
        <g
           id="g184"
           clip-path="url(#clipPath188)">
          <path
             d="m 917.34,552.699 -1.906,-12.508 66.242,99.731 c 0,0 -52.809,24.707 -54.375,69.797 -1.571,45.09 39.625,59.082 59.332,58.953 -44.246,-22.973 -28.313,-59.332 -28.313,-59.332 0,0 9.578,45.73 68.36,26.781 -13.26,-2.711 -35.981,-8.473 -39.836,-31.871 -2.035,-12.711 8.773,-25.852 32.716,-24.199 134.52,9.328 168.51,-14.922 168.51,-14.922 0,0 25.17,78.492 -56.49,108.422 29.34,5.578 59.71,0.418 85.56,-14.539 l 15.47,-9.032 -12.03,13.348 c -33.23,37.043 -92.99,82.012 -189.02,85.953 h -3.44 v -0.59 h -0.84 c -22.84,-11.14 -50.096,-7.82 -69.592,8.469 -28.778,-15.211 -67.133,7.211 -67.133,7.211 0,0 7.203,-19.961 40.347,-21.531 -22.843,-11.141 -50.129,-7.61 -69.379,8.98 -15.621,13.961 -23.699,34.489 -21.785,55.352 36.746,-28.313 69.336,-13.262 75.567,-11.82 44.289,10.207 59.925,-25.981 60.011,-26.114 0.086,-0.129 43.274,-18.429 69.124,19.5 l -0.25,0.211 h 0.42 l -4.79,4.242 c -1.14,0.969 -28.48,24.278 -76.625,41.149 -44.289,15.555 -115.105,28.098 -201.054,-0.301 h -0.297 c -10.297,-2.75 -64.336,-15.418 -117.481,6.699 l -11.781,4.918 8.477,-9.406 c 43.863,-47.852 97.05,-43.738 124.132,-37.34 -20.894,-33.91 -80.738,-48.738 -80.738,-48.738 19.899,-13.75 45.004,-17.613 68.11,-10.473 -43.102,-35.301 -48.188,-81.16 -33.313,-111.758 12.832,-25.992 38.332,-43.371 67.219,-45.812 0,0 -20.09,52.98 10.254,101.371 -3.051,-20.59 -4.239,-60.52 24.625,-89 54.035,-53.012 46.406,-112.012 44.289,-123.281 l -1.824,-9.957 6.695,7.578 c 18.222,20.558 21.445,57.691 21.531,74.039 10.68,-11.098 32.336,-41.738 25.301,-90.18 z M 676.402,864.578 c 0,0 -68.574,53.102 -113.793,31.024 -14.496,-7.293 -28.097,-18.864 -26.574,-44.961 1.695,-28.231 35.137,-61.711 97.098,-46.11 0,0 -57.43,-4.242 -70.481,34.918 -8.816,26.61 18.438,37.289 18.438,37.289 8.551,-25.148 31.926,-42.25 58.484,-42.797 8.067,-0.269 16.071,1.508 23.266,5.168 -4.602,9.981 -11.953,18.45 -21.192,24.411 7.883,1.23 23.95,3.261 34.754,1.058 z m -157.617,-97.726 6.824,8.48 c 0,0 -65.476,-21.754 -124.218,-92.992 20.257,57.379 83.027,120.191 83.027,120.191 -40.344,-14.23 -77.258,-36.75 -108.371,-66.109 31.488,73.949 154.016,155.539 154.016,155.539 0,0 -117.61,-33.531 -188.301,-117.949 C 257,672.852 259.457,579.48 259.457,579.48 c 0,0 24.496,51.579 62.047,83.149 C 286.156,581.73 304.977,492.43 312.051,465.602 l 3.39,-13.051 2.079,13.347 c 7.839,50.313 26.148,117.141 50.859,162.364 C 359.18,570.289 357.23,441.449 388,385.719 l 8.477,-15.688 -3.434,17.59 c -0.34,1.738 -32.379,178 125.742,379.231 z M 748.324,574.898 c 0,0 -49.289,-68.609 -57.511,-146.289 -17.715,72.039 14.453,179.731 14.453,179.731 0,0 -60.735,-58.988 -71.836,-137.231 -13.903,119.051 42.379,212.801 42.379,212.801 0,0 -86.797,-66.672 -94.211,-230.469 -3.032,-81.371 16.382,-162.011 56.113,-233.101 0,0 -8.141,79.601 -4.832,124.941 33.902,-125.359 119.43,-167.781 119.43,-167.781 0,0 -40.985,51.961 -52.004,162.398 14.496,-42.589 58.91,-99.886 103.75,-123.16 -111.207,153.293 -55.731,358.16 -55.731,358.16 z M 602.32,668.859 C 560.461,639.309 526.898,599.5 504.844,553.25 499.336,613.852 543.793,715.82 543.793,715.82 373.25,510.531 467.762,316.852 467.762,316.852 c 0,0 2.711,73.437 18.011,124.886 10.211,-108.527 80.907,-186.468 80.907,-186.468 0,0 -90.571,197.66 35.64,413.589 z m 624.15,52.34 c -1.06,-1.219 -25.81,-30.039 -33.65,-52.969 l -1.15,-3.429 3.56,-0.301 h 0.72 c 3.52,0 19.41,1.48 27.64,27.379 l 11.27,39.031 z M 842.75,973.5 c 0,0 82.559,3.18 133.414,-28.609 v 0 c 0,0 -58.359,106.379 -148.883,132.189 v 0 c 0,0 47.125,-33.9 58.739,-68.32 -46.075,42.96 -104.2,70.78 -166.559,79.72 -96.629,13.65 -169.906,-12.71 -169.906,-12.71 0,0 86.715,0.76 165.289,-26.24 89.551,-30.77 127.906,-75.905 127.906,-75.905 z M 948.277,498.832 c -2.797,-47.891 23.606,-74 23.606,-74 0,0 -5.594,71.457 35.767,151.469 -22.119,0 -56.576,-29.66 -59.373,-77.469 z M 616.266,947.395 v 0 c -17.661,11.293 -36.922,19.863 -57.133,25.425 117.269,25.938 259.121,-9.957 259.121,-9.957 0,0 -96.418,70.137 -219.621,70.137 -174.82,0 -263.231,-104.34 -263.231,-104.34 0,0 44.332,32.844 157.828,37.637 C 296.285,904.672 257,727.648 257,727.648 c 0,0 112.773,209.832 359.266,219.747 z M 1109.37,422.25 c -13.39,-34.879 -50.86,-48.398 -50.86,-48.398 l -1.52,-7.422 c -15.6,5.851 -32.69,6.371 -48.62,1.492 17.76,25 13.1,65.18 13.1,65.18 -14.24,-29.532 -38.802,-52.821 -69.04,-65.481 22.527,-16.762 49.86,-25.812 77.94,-25.812 24.07,0.382 43.19,6.363 56.96,18.941 22.59,20.641 24.2,53.32 22.04,61.5 z m 61.54,231.609 c -58.62,23.442 -120.75,7.93 -120.75,7.93 -6.14,-40.309 -16.95,-93.449 -16.95,-93.449 0,0 42.68,41.531 55.52,86.07 l 6.4,-15.172 c 0,0 26.15,15.981 52.04,-2.418 l 10.34,8.18 c 0,-1.441 2.38,-77.68 2.38,-77.68 0,0 61.58,66.11 11.02,86.539 z m -88.33,-310.531 c 0,0 -5.25,-22.969 -43.52,-31.648 7.52,-4.2 14.49,-9.309 20.76,-15.219 0,0 -18.43,-25.981 -63.566,-26.02 -59.332,0 -96.418,51.7 -96.418,51.7 0,0 26.953,-13.129 53.062,-11.141 -101.714,62.852 -45.433,181.18 -45.433,181.18 0,0 -7.289,-81.039 25.43,-121.758 46.109,-56.75 131.465,-35.774 149.685,-27.094"
             style="fill:url(#linearGradient202);fill-opacity:1;fill-rule:nonzero;stroke:none"
             id="path204" />
        </g>
      </g>
    </g>
  </g>
</svg>
