<svg width="18" height="21" viewBox="0 0 18 21" fill="none" xmlns="http://www.w3.org/2000/svg">
<path d="M17.4728 17.6767L14.0286 13.8443C13.8731 13.6713 13.6624 13.5752 13.4413 13.5752H12.8782C13.8317 12.2183 14.3982 10.5116 14.3982 8.65501C14.3982 4.23835 11.1821 0.659668 7.21279 0.659668C3.24352 0.659668 0.0273438 4.23835 0.0273438 8.65501C0.0273438 13.0717 3.24352 16.6504 7.21279 16.6504C8.88133 16.6504 10.4151 16.02 11.6346 14.959V15.5856C11.6346 15.8316 11.721 16.0661 11.8764 16.2391L15.3206 20.0714C15.6453 20.4328 16.1704 20.4328 16.4917 20.0714L17.4693 18.9836C17.794 18.6223 17.794 18.038 17.4728 17.6767ZM7.21279 13.5752C4.77043 13.5752 2.79098 11.3765 2.79098 8.65501C2.79098 5.93737 4.76697 3.7348 7.21279 3.7348C9.65515 3.7348 11.6346 5.93352 11.6346 8.65501C11.6346 11.3727 9.6586 13.5752 7.21279 13.5752Z" fill="#716C6C"/>
</svg>
