<svg width="15" height="21" viewBox="0 0 15 21" fill="none" xmlns="http://www.w3.org/2000/svg">
<path d="M14.106 17.6767L11.4058 13.8443C11.2839 13.6713 11.1187 13.5752 10.9454 13.5752H10.504C11.2514 12.2183 11.6956 10.5116 11.6956 8.65501C11.6956 4.23835 9.17419 0.659668 6.06238 0.659668C2.95056 0.659668 0.429153 4.23835 0.429153 8.65501C0.429153 13.0717 2.95056 16.6504 6.06238 16.6504C7.37048 16.6504 8.57295 16.02 9.52898 14.959V15.5856C9.52898 15.8316 9.59668 16.0661 9.71856 16.2391L12.4187 20.0714C12.6733 20.4328 13.0849 20.4328 13.3368 20.0714L14.1033 18.9836C14.3578 18.6223 14.3578 18.038 14.106 17.6767ZM6.06238 13.5752C4.14762 13.5752 2.59578 11.3765 2.59578 8.65501C2.59578 5.93737 4.14491 3.7348 6.06238 3.7348C7.97713 3.7348 9.52898 5.93352 9.52898 8.65501C9.52898 11.3727 7.97984 13.5752 6.06238 13.5752Z" fill="#716C6C"/>
</svg>
