<svg width="18" height="21" viewBox="0 0 18 21" fill="none" xmlns="http://www.w3.org/2000/svg">
<path d="M17.4728 17.6766L14.0286 13.8442C13.8731 13.6712 13.6624 13.5751 13.4413 13.5751H12.8782C13.8317 12.2182 14.3982 10.5115 14.3982 8.65489C14.3982 4.23823 11.1821 0.659546 7.21279 0.659546C3.24352 0.659546 0.0273438 4.23823 0.0273438 8.65489C0.0273438 13.0716 3.24352 16.6502 7.21279 16.6502C8.88133 16.6502 10.4151 16.0198 11.6346 14.9589V15.5855C11.6346 15.8315 11.721 16.066 11.8764 16.2389L15.3206 20.0713C15.6453 20.4327 16.1704 20.4327 16.4917 20.0713L17.4693 18.9835C17.794 18.6222 17.794 18.0379 17.4728 17.6766ZM7.21279 13.5751C4.77043 13.5751 2.79098 11.3764 2.79098 8.65489C2.79098 5.93724 4.76697 3.73468 7.21279 3.73468C9.65515 3.73468 11.6346 5.9334 11.6346 8.65489C11.6346 11.3725 9.6586 13.5751 7.21279 13.5751Z" fill="#716C6C"/>
</svg>
