<svg width="16" height="21" viewBox="0 0 16 21" fill="none" xmlns="http://www.w3.org/2000/svg">
<path d="M15.2866 17.6767L12.4485 13.8443C12.3204 13.6713 12.1467 13.5752 11.9645 13.5752H11.5005C12.2862 12.2183 12.7531 10.5116 12.7531 8.65501C12.7531 4.23835 10.1028 0.659668 6.832 0.659668C3.56119 0.659668 0.91095 4.23835 0.91095 8.65501C0.91095 13.0717 3.56119 16.6504 6.832 16.6504C8.20694 16.6504 9.47086 16.02 10.4757 14.959V15.5856C10.4757 15.8316 10.5469 16.0661 10.675 16.2391L13.5131 20.0714C13.7807 20.4328 14.2134 20.4328 14.4781 20.0714L15.2837 18.9836C15.5513 18.6223 15.5513 18.038 15.2866 17.6767ZM6.832 13.5752C4.81941 13.5752 3.18828 11.3765 3.18828 8.65501C3.18828 5.93737 4.81657 3.7348 6.832 3.7348C8.84459 3.7348 10.4757 5.93352 10.4757 8.65501C10.4757 11.3727 8.84744 13.5752 6.832 13.5752Z" fill="#716C6C"/>
</svg>
