<svg width="21" height="21" viewBox="0 0 21 21" fill="none" xmlns="http://www.w3.org/2000/svg">
<path d="M19.8338 17.6766L16.1137 13.8442C15.9458 13.6712 15.7182 13.5751 15.4794 13.5751H14.8712C15.901 12.2182 16.5129 10.5115 16.5129 8.65489C16.5129 4.23823 13.0391 0.659546 8.75182 0.659546C4.46456 0.659546 0.990723 4.23823 0.990723 8.65489C0.990723 13.0716 4.46456 16.6502 8.75182 16.6502C10.554 16.6502 12.2107 16.0198 13.5279 14.9589V15.5855C13.5279 15.8315 13.6212 16.066 13.7891 16.2389L17.5092 20.0713C17.8599 20.4327 18.4271 20.4327 18.7741 20.0713L19.8301 18.9835C20.1808 18.6222 20.1808 18.0379 19.8338 17.6766ZM8.75182 13.5751C6.1138 13.5751 3.97576 11.3764 3.97576 8.65489C3.97576 5.93724 6.11006 3.73468 8.75182 3.73468C11.3899 3.73468 13.5279 5.9334 13.5279 8.65489C13.5279 11.3725 11.3936 13.5751 8.75182 13.5751Z" fill="#716C6C"/>
</svg>
