<svg width="15" height="19" viewBox="0 0 15 19" fill="none" xmlns="http://www.w3.org/2000/svg">
<path d="M14.1901 15.9007L11.4801 12.4827C11.3578 12.3284 11.192 12.2427 11.018 12.2427H10.575C11.3252 11.0325 11.7709 9.51027 11.7709 7.85437C11.7709 3.91519 9.24033 0.723389 6.11716 0.723389C2.99399 0.723389 0.463379 3.91519 0.463379 7.85437C0.463379 11.7936 2.99399 14.9854 6.11716 14.9854C7.43004 14.9854 8.6369 14.4231 9.59641 13.4769V14.0357C9.59641 14.2551 9.66437 14.4642 9.78668 14.6185L12.4967 18.0366C12.7522 18.3589 13.1654 18.3589 13.4182 18.0366L14.1874 17.0664C14.4429 16.7441 14.4429 16.223 14.1901 15.9007ZM6.11716 12.2427C4.19542 12.2427 2.63791 10.2817 2.63791 7.85437C2.63791 5.43052 4.1927 3.46607 6.11716 3.46607C8.0389 3.46607 9.59641 5.4271 9.59641 7.85437C9.59641 10.2782 8.04162 12.2427 6.11716 12.2427Z" fill="#716C6C"/>
</svg>
