<svg width="16" height="21" viewBox="0 0 16 21" fill="none" xmlns="http://www.w3.org/2000/svg">
<path d="M15.2868 17.6767L12.4486 13.8443C12.3205 13.6713 12.1469 13.5752 11.9647 13.5752H11.5007C12.2864 12.2183 12.7532 10.5116 12.7532 8.65501C12.7532 4.23835 10.103 0.659668 6.83219 0.659668C3.56137 0.659668 0.911133 4.23835 0.911133 8.65501C0.911133 13.0717 3.56137 16.6504 6.83219 16.6504C8.20712 16.6504 9.47104 16.02 10.4759 14.959V15.5856C10.4759 15.8316 10.5471 16.0661 10.6752 16.2391L13.5133 20.0714C13.7809 20.4328 14.2136 20.4328 14.4783 20.0714L15.2839 18.9836C15.5515 18.6223 15.5515 18.038 15.2868 17.6767ZM6.83219 13.5752C4.8196 13.5752 3.18846 11.3765 3.18846 8.65501C3.18846 5.93737 4.81675 3.7348 6.83219 3.7348C8.84477 3.7348 10.4759 5.93352 10.4759 8.65501C10.4759 11.3727 8.84762 13.5752 6.83219 13.5752Z" fill="#716C6C"/>
</svg>
