<svg width="15" height="21" viewBox="0 0 15 21" fill="none" xmlns="http://www.w3.org/2000/svg">
<path d="M14.106 17.6767L11.4059 13.8443C11.284 13.6713 11.1188 13.5752 10.9455 13.5752H10.504C11.2515 12.2183 11.6956 10.5116 11.6956 8.65501C11.6956 4.23835 9.17424 0.659668 6.06242 0.659668C2.95061 0.659668 0.429199 4.23835 0.429199 8.65501C0.429199 13.0717 2.95061 16.6504 6.06242 16.6504C7.37052 16.6504 8.573 16.02 9.52902 14.959V15.5856C9.52902 15.8316 9.59673 16.0661 9.7186 16.2391L12.4188 20.0714C12.6733 20.4328 13.085 20.4328 13.3369 20.0714L14.1033 18.9836C14.3579 18.6223 14.3579 18.038 14.106 17.6767ZM6.06242 13.5752C4.14767 13.5752 2.59582 11.3765 2.59582 8.65501C2.59582 5.93737 4.14496 3.7348 6.06242 3.7348C7.97718 3.7348 9.52902 5.93352 9.52902 8.65501C9.52902 11.3727 7.97989 13.5752 6.06242 13.5752Z" fill="#716C6C"/>
</svg>
