<svg width="26" height="19" viewBox="0 0 26 19" fill="none" xmlns="http://www.w3.org/2000/svg">
<path d="M25.3208 16.2887L20.4921 12.6634C20.2742 12.4998 19.9787 12.4089 19.6687 12.4089H18.8793C20.216 11.1253 21.0103 9.5109 21.0103 7.75465C21.0103 3.57673 16.5012 0.191483 10.9363 0.191483C5.37139 0.191483 0.862305 3.57673 0.862305 7.75465C0.862305 11.9326 5.37139 15.3178 10.9363 15.3178C13.2756 15.3178 15.426 14.7215 17.1357 13.7179V14.3106C17.1357 14.5433 17.2568 14.7651 17.4747 14.9287L22.3035 18.554C22.7588 18.8958 23.4949 18.8958 23.9454 18.554L25.316 17.5249C25.7713 17.1831 25.7713 16.6305 25.3208 16.2887ZM10.9363 12.4089C7.51212 12.4089 4.73692 10.329 4.73692 7.75465C4.73692 5.1839 7.50728 3.10039 10.9363 3.10039C14.3605 3.10039 17.1357 5.18026 17.1357 7.75465C17.1357 10.3254 14.3654 12.4089 10.9363 12.4089Z" fill="#716C6C"/>
</svg>
